<svg width="200" height="150" viewBox="0 0 800 600" fill="none" xmlns="http://www.w3.org/2000/svg" data-reactroot="">
<path opacity="0.1" d="M57.6818 450.963C-4.5305 327.276 31.5741 146.016 161.939 99.3896C246.035 69.3119 316.833 146.161 403.128 169.183C521.541 200.772 643.803 187.426 685.299 242.008C749.117 325.951 651.182 432.123 557.576 508.733C404.139 634.312 140.255 615.129 57.6818 450.963Z" fill="#ebebeb"></path>
<path d="M194.462 351.039C217.865 351.039 236.837 332.066 236.837 308.663C236.837 285.259 217.865 266.287 194.462 266.287C171.058 266.287 152.086 285.259 152.086 308.663C152.086 332.066 171.058 351.039 194.462 351.039Z" fill="#ebebeb"></path>
<path d="M321.38 351.039C344.783 351.039 363.755 332.066 363.755 308.663C363.755 285.259 344.783 266.287 321.38 266.287C297.976 266.287 279.004 285.259 279.004 308.663C279.004 332.066 297.976 351.039 321.38 351.039Z" fill="none" stroke="#221b38" stroke-width="1"></path>
<path d="M321.384 351.039C344.787 351.039 363.759 332.066 363.759 308.663C363.759 285.259 344.787 266.287 321.384 266.287C297.98 266.287 279.008 285.259 279.008 308.663C279.008 332.066 297.98 351.039 321.384 351.039Z" fill="white" fill-opacity="0.43"></path>
<path d="M448.302 351.039C471.705 351.039 490.677 332.066 490.677 308.663C490.677 285.259 471.705 266.287 448.302 266.287C424.898 266.287 405.926 285.259 405.926 308.663C405.926 332.066 424.898 351.039 448.302 351.039Z" fill="#f06529"></path>
<path d="M194.462 478.166C217.865 478.166 236.837 459.193 236.837 435.79C236.837 412.386 217.865 393.414 194.462 393.414C171.058 393.414 152.086 412.386 152.086 435.79C152.086 459.193 171.058 478.166 194.462 478.166Z" fill="none" stroke="#221b38" stroke-width="1"></path>
<path d="M194.462 478.166C217.865 478.166 236.837 459.193 236.837 435.79C236.837 412.386 217.865 393.414 194.462 393.414C171.058 393.414 152.086 412.386 152.086 435.79C152.086 459.193 171.058 478.166 194.462 478.166Z" fill="black" fill-opacity="0.27"></path>
<path d="M321.38 478.166C344.783 478.166 363.755 459.193 363.755 435.79C363.755 412.386 344.783 393.414 321.38 393.414C297.976 393.414 279.004 412.386 279.004 435.79C279.004 459.193 297.976 478.166 321.38 478.166Z" fill="none" stroke="#221b38" stroke-width="1"></path>
<path d="M448.302 478.166C471.705 478.166 490.677 459.193 490.677 435.79C490.677 412.386 471.705 393.414 448.302 393.414C424.898 393.414 405.926 412.386 405.926 435.79C405.926 459.193 424.898 478.166 448.302 478.166Z" fill="#f06529"></path>
<path d="M448.302 478.166C471.705 478.166 490.677 459.193 490.677 435.79C490.677 412.386 471.705 393.414 448.302 393.414C424.898 393.414 405.926 412.386 405.926 435.79C405.926 459.193 424.898 478.166 448.302 478.166Z" fill="black" fill-opacity="0.15"></path>
<path fill-rule="evenodd" clip-rule="evenodd" d="M483.711 258.318C487.584 262.158 487.611 268.411 483.77 272.284L459.259 297.003C455.419 300.876 449.166 300.902 445.293 297.062C441.42 293.222 441.394 286.969 445.234 283.096L469.746 258.377C473.586 254.504 479.839 254.478 483.711 258.318Z" fill="none" stroke="#221b38" stroke-width="1"></path>
<path opacity="0.2" d="M647.917 132.595L659.55 116.185C679.699 122.001 704.211 120.131 714.181 109.953C728.722 95.4122 722.075 65.2921 699.433 42.6501C676.791 20.0081 646.671 13.5687 632.13 27.9017C621.952 38.0802 620.082 62.3839 625.898 82.5332L609.488 94.1658L647.917 132.595Z" fill="#f06529"></path>
<path fill-rule="evenodd" clip-rule="evenodd" d="M664.851 11.7604C679.131 14.8662 693.96 23.2026 706.424 35.6671C718.874 48.1169 727.267 62.9365 730.404 77.2211C733.511 91.366 731.641 106.438 721.208 116.9C713.852 124.383 702.495 127.785 691.696 128.891C682.768 129.805 673.033 129.28 663.732 127.373L655.982 138.306C654.3 140.679 651.657 142.19 648.758 142.435C645.859 142.68 643 141.635 640.943 139.578L602.514 101.149C600.457 99.0917 599.411 96.2323 599.656 93.3335C599.901 90.4347 601.412 87.7915 603.786 86.1092L614.718 78.3597C612.812 69.0773 612.286 59.381 613.201 50.4701C614.312 39.6425 617.732 28.3421 625.156 20.9187L625.206 20.8686C635.66 10.5639 650.705 8.68395 664.851 11.7604ZM639.097 34.9088C636.351 37.6744 633.76 43.6064 632.848 52.4866C631.968 61.0664 632.83 70.9082 635.395 79.7944C636.56 83.8299 635.044 88.1607 631.618 90.5898L624.753 95.4561L646.635 117.338L651.501 110.474C653.931 107.047 658.261 105.532 662.297 106.697C671.179 109.26 681.073 110.124 689.685 109.243C698.654 108.325 704.519 105.713 707.135 103.042L707.207 102.97C711.283 98.8932 713.352 91.6525 711.113 81.4577C708.902 71.3866 702.65 59.8251 692.458 49.633C682.281 39.4555 670.728 33.2513 660.653 31.0601C650.465 28.8444 643.189 30.8976 639.097 34.9088Z" fill="none" stroke="#221b38" stroke-width="1"></path>
<path opacity="0.83" d="M583.734 195.743L519.34 260.138L508.123 248.921L485.896 271.147L471.355 256.606L493.582 234.38L482.157 222.955L546.552 158.561L583.734 195.743Z" fill="#f06529"></path>
<path fill-rule="evenodd" clip-rule="evenodd" d="M539.569 151.578C543.426 147.721 549.679 147.721 553.535 151.578L590.718 188.761C594.574 192.617 594.574 198.87 590.718 202.727L526.323 267.121C522.467 270.978 516.214 270.978 512.357 267.121L508.123 262.887L492.88 278.131C489.023 281.987 482.77 281.987 478.914 278.131L464.373 263.59C462.521 261.738 461.48 259.226 461.48 256.607C461.48 253.988 462.521 251.476 464.373 249.624L479.616 234.38L475.175 229.939C471.318 226.082 471.318 219.829 475.175 215.973L539.569 151.578ZM496.124 222.956L500.565 227.397C502.417 229.249 503.458 231.761 503.458 234.38C503.458 237 502.417 239.511 500.565 241.363L485.322 256.607L485.897 257.182L501.14 241.938C504.997 238.082 511.249 238.082 515.106 241.938L519.34 246.172L569.769 195.744L546.552 172.527L496.124 222.956Z" fill="none" stroke="#221b38" stroke-width="1"></path>
<path fill-rule="evenodd" clip-rule="evenodd" d="M654.283 125.197C658.14 129.054 658.14 135.306 654.283 139.163L592.589 200.857C588.732 204.714 582.48 204.714 578.623 200.857C574.766 197.001 574.766 190.748 578.623 186.891L640.317 125.197C644.174 121.341 650.426 121.341 654.283 125.197Z" fill="none" stroke="#221b38" stroke-width="1"></path>
<path fill-rule="evenodd" clip-rule="evenodd" d="M617.306 88.0135C621.163 91.8701 621.163 98.1229 617.306 101.979L555.612 163.674C551.756 167.53 545.503 167.53 541.646 163.674C537.79 159.817 537.79 153.564 541.646 149.708L603.341 88.0135C607.197 84.1569 613.45 84.1569 617.306 88.0135Z" fill="none" stroke="#221b38" stroke-width="1"></path>
<path fill-rule="evenodd" clip-rule="evenodd" d="M579.244 65.371C583.101 61.5144 589.353 61.5144 593.21 65.371L678.792 150.953C682.649 154.81 682.649 161.063 678.792 164.919C674.936 168.776 668.683 168.776 664.826 164.919L579.244 79.3369C575.387 75.4803 575.387 69.2276 579.244 65.371Z" fill="none" stroke="#221b38" stroke-width="1"></path>
<path opacity="0.1" fill-rule="evenodd" clip-rule="evenodd" d="M706.266 183.561C719.692 188.055 733.047 195.793 743.648 205.578C754.237 215.352 760.639 225.803 762.03 234.967C763.408 244.04 759.877 252.756 748.61 257.125C740.653 260.27 729.303 260.226 718.755 258.904C710.033 257.811 700.699 255.705 691.942 252.848L687.961 255.194L703.778 269.794C707.058 272.821 706.342 276.579 702.178 278.188C698.015 279.797 691.98 278.647 688.7 275.619L673.262 261.37L614.867 283.932C614.525 284.065 614.17 284.178 613.805 284.274C613.51 284.433 613.191 284.58 612.849 284.712L543.326 311.574C539.162 313.183 533.128 312.033 529.848 309.005L526.247 305.681L509.789 312.04C505.626 313.649 499.591 312.498 496.311 309.471L495.909 309.1L475.18 317.2C471.03 318.821 464.993 317.687 461.695 314.667C458.398 311.646 459.089 307.883 463.238 306.261L484.031 298.136L483.944 298.056C482.369 296.602 481.653 294.901 481.953 293.327C482.253 291.752 483.545 290.434 485.544 289.661L502.002 283.303L498.224 279.816C494.944 276.788 495.66 273.03 499.824 271.421L569.346 244.559C569.846 244.366 570.373 244.213 570.919 244.098C571.124 243.998 571.34 243.905 571.565 243.818L629.848 221.298L615.912 208.435C612.632 205.408 613.348 201.649 617.512 200.04C621.676 198.432 627.71 199.582 630.99 202.609L645.041 215.578L650.254 214.372C649.478 208.441 650.082 202.517 651.986 197.329C654.299 191.025 658.894 184.861 666.908 181.765L666.963 181.744C678.232 177.473 692.967 179.11 706.266 183.561ZM641.727 232.262L588.852 252.691L608.51 270.836L661.384 250.406L641.727 232.262Z" fill="none" stroke="#221b38" stroke-width="1"></path>
<path d="M87.0195 45.5215H245.815V204.317H87.0195V45.5215Z" fill="#f06529"></path>
<path d="M120.668 79.1719H148.464V106.968H120.668V79.1719Z" fill="none" stroke="#221b38" stroke-width="1"></path>
<path d="M120.668 140.197H148.464V167.994H120.668V140.197Z" fill="none" stroke="#221b38" stroke-width="1"></path>
<path d="M188.02 79.1719H215.816V106.968H188.02V79.1719Z" fill="none" stroke="#221b38" stroke-width="1"></path>
<path d="M188.02 140.197H215.816V167.994H188.02V140.197Z" fill="none" stroke="#221b38" stroke-width="1"></path>
<path fill-rule="evenodd" clip-rule="evenodd" d="M304.742 93.8965C306.161 93.8965 307.311 95.047 307.311 96.4662V145.101C307.311 146.52 306.161 147.671 304.742 147.671C303.322 147.671 302.172 146.52 302.172 145.101V96.4662C302.172 95.047 303.322 93.8965 304.742 93.8965Z" fill="none" stroke="#221b38" stroke-width="1"></path>
<path fill-rule="evenodd" clip-rule="evenodd" d="M331.613 120.784C331.613 119.365 330.463 118.214 329.044 118.214L280.409 118.214C278.99 118.214 277.839 119.365 277.839 120.784C277.839 122.203 278.99 123.354 280.409 123.354L329.044 123.354C330.463 123.354 331.613 122.203 331.613 120.784Z" fill="none" stroke="#221b38" stroke-width="1"></path>
</svg>
