<svg width="200" height="150" viewBox="0 0 800 600" fill="none" xmlns="http://www.w3.org/2000/svg" data-reactroot="">
<path d="M527.302 141.297C537.228 141.297 545.275 133.25 545.275 123.323C545.275 113.397 537.228 105.35 527.302 105.35C517.375 105.35 509.328 113.397 509.328 123.323C509.328 133.25 517.375 141.297 527.302 141.297Z" fill="#ebebeb"></path>
<path d="M595.243 201.591C597.707 201.591 599.704 199.594 599.704 197.13C599.704 194.665 597.707 192.668 595.243 192.668C592.779 192.668 590.781 194.665 590.781 197.13C590.781 199.594 592.779 201.591 595.243 201.591Z" fill="none" stroke="#221b38" stroke-width="1"></path>
<path d="M595.246 210.004C588.107 210.004 582.371 204.268 582.371 197.13C582.371 189.991 588.107 184.255 595.246 184.255C602.384 184.255 608.12 189.991 608.12 197.13C608.12 204.268 602.384 210.004 595.246 210.004ZM595.246 185.657C588.872 185.657 583.646 190.883 583.646 197.257C583.646 203.631 588.872 208.857 595.246 208.857C601.619 208.857 606.846 203.631 606.846 197.257C606.846 190.883 601.619 185.657 595.246 185.657Z" fill="none" stroke="#221b38" stroke-width="1"></path>
<g opacity="0.4">
<path opacity="0.4" d="M639.48 585.921C638.46 585.921 637.695 585.411 637.695 584.646L634.381 335.055H644.706L641.392 584.646C641.392 585.411 640.499 585.921 639.48 585.921Z" fill="none" stroke="#221b38" stroke-width="1"></path>
</g>
<g opacity="0.4">
<path opacity="0.4" d="M565.416 585.921C564.396 585.921 563.632 585.411 563.632 584.646L560.317 335.055H570.643L567.328 584.646C567.201 585.411 566.436 585.921 565.416 585.921Z" fill="none" stroke="#221b38" stroke-width="1"></path>
</g>
<path d="M606.463 238.048L507.927 287.507L507.417 286.487C506.015 283.683 507.162 280.241 509.967 278.839L598.305 234.478C601.109 233.076 604.551 234.223 605.953 237.028L606.463 238.048Z" fill="none" stroke="#221b38" stroke-width="1"></path>
<path d="M508.053 287.507L516.339 295.92L614.875 246.334L606.462 238.048L593.078 240.98L511.24 282.791L508.053 287.507Z" fill="none" stroke="#221b38" stroke-width="1"></path>
<path d="M605.953 239.195L651.206 115.165C647.636 113.89 643.812 115.674 642.537 119.244L601.874 230.527C600.599 234.097 602.511 237.921 605.953 239.195Z" fill="none" stroke="#221b38" stroke-width="1"></path>
<path d="M651.206 115.165L665.993 117.077L612.837 246.079L605.954 239.196L607.356 225.556L647 118.989L651.206 115.165Z" fill="none" stroke="#221b38" stroke-width="1"></path>
<path fill-rule="evenodd" clip-rule="evenodd" d="M598.305 234.478C599.352 233.955 600.487 233.787 601.573 233.927C601.385 232.829 601.467 231.665 601.874 230.527L642.538 119.244C643.812 115.674 647.636 113.89 651.206 115.165L651.205 115.165L651.206 115.165L665.993 117.077L613.351 244.832L614.876 246.333L516.339 295.92L508.053 287.507L508.119 287.411L507.927 287.507L507.417 286.487C506.015 283.683 507.162 280.241 509.967 278.839L598.305 234.478Z" fill="white" fill-opacity="0.57"></path>
<path d="M630.557 320.267H519.018C512.772 320.267 507.546 315.168 507.546 308.795C507.546 302.421 512.644 297.322 519.018 297.322C519.783 297.322 520.293 297.832 520.293 298.597C520.293 299.362 519.783 299.872 519.018 299.872C514.174 299.872 510.095 303.823 510.095 308.795C510.095 313.639 514.047 317.718 519.018 317.718H630.557C631.321 317.718 631.831 318.228 631.831 318.993C631.831 319.757 631.194 320.267 630.557 320.267Z" fill="#f06529"></path>
<path d="M467.007 319.758H462.801V308.668L467.007 307.648V319.758Z" fill="#f06529"></path>
<path d="M635.654 586.559C634.251 586.559 633.232 585.794 633.232 584.647L629.79 334.418H641.517L638.076 584.647C638.203 585.794 637.056 586.559 635.654 586.559ZM631.192 335.82L634.506 584.647C634.506 584.902 635.016 585.284 635.654 585.284C636.291 585.284 636.801 584.902 636.801 584.647L640.115 335.82H631.192Z" fill="none" stroke="#221b38" stroke-width="1"></path>
<path d="M561.59 586.559C560.188 586.559 559.168 585.794 559.168 584.647L555.726 334.418H567.454L564.012 584.647C564.012 585.794 562.865 586.559 561.59 586.559ZM557.001 335.82L560.315 584.647C560.315 584.902 560.825 585.284 561.462 585.284C562.1 585.284 562.61 584.902 562.61 584.647L565.924 335.82H557.001Z" fill="none" stroke="#221b38" stroke-width="1"></path>
<path d="M651.971 337.223H387.21C384.024 337.223 381.602 334.673 381.602 331.614V329.447C381.602 326.26 384.151 323.838 387.21 323.838H651.844C655.03 323.838 657.452 326.387 657.452 329.447V331.614C657.58 334.801 655.03 337.223 651.971 337.223Z" fill="none" stroke="#221b38" stroke-width="1"></path>
<path d="M614.873 246.334L516.337 295.793L515.827 294.773C514.425 291.969 515.572 288.527 518.377 287.125L606.715 242.764C609.52 241.362 612.961 242.51 614.364 245.314L614.873 246.334Z" fill="none" stroke="#221b38" stroke-width="1"></path>
<path d="M614.874 246.334L667.01 117.586C663.569 116.184 659.617 117.841 658.215 121.283L611.177 237.538C609.775 241.107 611.432 244.932 614.874 246.334Z" fill="none" stroke="#221b38" stroke-width="1"></path>
<path d="M478.099 320.395H472.491V307.138L478.099 305.608V320.395ZM473.893 319.12H476.952V307.266L473.893 308.03V319.12Z" fill="none" stroke="#221b38" stroke-width="1"></path>
<path d="M574.213 319.631H569.496L559.426 278.33L565.035 275.398L574.213 319.631ZM570.516 318.357H572.683L564.142 277.311L560.956 278.968L570.516 318.357Z" fill="#f06529"></path>
<path d="M620.867 246.207L517.232 296.813C515.957 297.451 514.427 297.196 513.535 296.176L499.513 281.134C498.493 280.242 497.091 281.516 497.856 282.536L510.986 301.402C511.878 302.677 513.662 303.187 515.065 302.422L622.524 249.266C623.161 249.011 623.544 248.374 623.544 247.736C623.416 246.462 622.014 245.697 620.867 246.207Z" fill="#f06529"></path>
<path d="M542.852 265.837C542.47 265.2 542.342 264.563 543.745 263.67C545.019 262.906 545.657 263.288 546.039 263.925" fill="none" stroke="#221b38" stroke-width="1"></path>
<path d="M520.035 275.526L535.077 267.495L541.45 272.976L525.771 281.262L520.035 275.526Z" fill="none" stroke="#221b38" stroke-width="1"></path>
<path d="M544.51 267.495C544.128 266.857 544.001 266.22 545.403 265.328C546.678 264.563 547.315 264.945 547.697 265.583" fill="none" stroke="#221b38" stroke-width="1"></path>
<path d="M546.166 269.024C545.784 268.387 545.656 267.749 547.058 266.857C548.333 266.092 548.971 266.475 549.353 267.112" fill="none" stroke="#221b38" stroke-width="1"></path>
<path d="M547.824 270.681C547.442 270.044 547.314 269.406 548.717 268.514C549.991 267.749 550.629 268.132 551.011 268.769" fill="none" stroke="#221b38" stroke-width="1"></path>
<path d="M549.736 262.395C549.353 261.758 549.226 261.12 550.628 260.228C551.903 259.463 552.54 259.846 552.922 260.483" fill="none" stroke="#221b38" stroke-width="1"></path>
<path d="M551.395 264.052C551.012 263.415 550.885 262.778 552.287 261.885C553.562 261.12 554.199 261.503 554.582 262.14" fill="none" stroke="#221b38" stroke-width="1"></path>
<path d="M553.05 265.582C552.668 264.944 552.54 264.307 553.943 263.415C555.217 262.65 555.855 263.032 556.237 263.67" fill="none" stroke="#221b38" stroke-width="1"></path>
<path d="M554.709 267.239C554.326 266.601 554.199 265.964 555.601 265.072C556.876 264.307 557.513 264.689 557.895 265.327" fill="none" stroke="#221b38" stroke-width="1"></path>
<path d="M556.747 258.954C556.364 258.316 556.237 257.679 557.639 256.787C558.914 256.022 559.551 256.404 559.933 257.042" fill="none" stroke="#221b38" stroke-width="1"></path>
<path d="M558.405 260.61C558.023 259.973 557.895 259.335 559.297 258.443C560.572 257.678 561.209 258.06 561.592 258.698" fill="none" stroke="#221b38" stroke-width="1"></path>
<path d="M559.934 262.14C559.551 261.503 559.424 260.865 560.826 259.973C562.101 259.208 562.738 259.591 563.12 260.228" fill="none" stroke="#221b38" stroke-width="1"></path>
<path d="M561.592 263.797C561.209 263.16 561.082 262.523 562.484 261.63C563.759 260.866 564.396 261.248 564.779 261.885" fill="none" stroke="#221b38" stroke-width="1"></path>
<path d="M563.631 255.512C563.248 254.875 563.121 254.238 564.523 253.345C565.798 252.58 566.435 252.963 566.818 253.6" fill="none" stroke="#221b38" stroke-width="1"></path>
<path d="M565.288 257.169C564.906 256.532 564.778 255.895 566.181 255.002C567.455 254.238 568.093 254.62 568.475 255.257" fill="none" stroke="#221b38" stroke-width="1"></path>
<path d="M566.944 258.7C566.562 258.062 566.434 257.425 567.836 256.533C569.111 255.768 569.748 256.15 570.131 256.788" fill="none" stroke="#221b38" stroke-width="1"></path>
<path d="M568.602 260.356C568.22 259.719 568.092 259.081 569.494 258.189C570.769 257.424 571.407 257.807 571.789 258.444" fill="none" stroke="#221b38" stroke-width="1"></path>
<path d="M570.515 252.071C570.132 251.434 570.005 250.796 571.407 249.904C572.682 249.139 573.319 249.521 573.702 250.159" fill="none" stroke="#221b38" stroke-width="1"></path>
<path d="M572.174 253.727C571.791 253.09 571.664 252.452 573.066 251.56C574.341 250.795 574.978 251.178 575.36 251.815" fill="none" stroke="#221b38" stroke-width="1"></path>
<path d="M573.829 255.257C573.447 254.62 573.319 253.983 574.722 253.09C575.996 252.326 576.634 252.708 577.016 253.345" fill="none" stroke="#221b38" stroke-width="1"></path>
<path d="M575.487 256.915C575.105 256.277 574.977 255.64 576.38 254.748C577.654 253.983 578.292 254.365 578.674 255.002" fill="none" stroke="#221b38" stroke-width="1"></path>
<path d="M577.526 248.628C577.143 247.991 577.016 247.354 578.418 246.461C579.693 245.697 580.33 246.079 580.713 246.716" fill="none" stroke="#221b38" stroke-width="1"></path>
<path d="M579.054 250.286C578.672 249.648 578.544 249.011 579.947 248.119C581.221 247.354 581.859 247.736 582.241 248.374" fill="none" stroke="#221b38" stroke-width="1"></path>
<path d="M580.712 251.815C580.33 251.178 580.203 250.54 581.605 249.648C582.88 248.883 583.517 249.266 583.899 249.903" fill="none" stroke="#221b38" stroke-width="1"></path>
<path d="M582.371 253.472C581.988 252.835 581.861 252.197 583.263 251.305C584.538 250.54 585.175 250.923 585.557 251.56" fill="none" stroke="#221b38" stroke-width="1"></path>
<path d="M484.724 307.01L398.68 320.395L398.297 317.591C397.787 314.531 399.955 311.599 403.014 311.09L477.84 299.49C480.9 298.98 483.831 301.147 484.341 304.206L484.724 307.01Z" fill="none" stroke="#221b38" stroke-width="1"></path>
<path d="M356.49 464.694L218.564 444.681C214.995 444.681 212.063 442.004 212.063 438.817V410.136C212.063 401.722 219.584 394.839 228.89 394.839H352.156C370.384 394.839 385.044 408.223 385.044 424.667V438.817C384.916 442.004 360.059 464.694 356.49 464.694Z" fill="#ebebeb"></path>
<path d="M235.518 185.53L260.885 420.717L201.355 425.306L196.257 239.068L177.008 198.659L213.21 179.921L235.518 185.53Z" fill="#ebebeb"></path>
<path d="M143.228 140.149C143.228 140.149 182.999 116.949 200.718 122.685C218.437 128.422 226.085 134.03 230.164 151.622L235.518 185.529L190.393 200.954L147.69 149.2L143.228 140.149Z" fill="#f06529"></path>
<path d="M192.048 425.05C196.892 381.582 194.725 337.859 185.929 295.156C176.624 250.158 159.925 206.435 136.088 165.898C130.096 155.701 136.088 142.571 147.815 140.531C147.943 140.531 148.07 140.531 148.198 140.404C155.336 139.129 162.347 142.571 165.916 148.817C190.391 192.795 206.58 240.852 213.846 290.312C220.092 332.888 219.837 376.738 212.826 420.079C210.914 432.061 190.773 436.395 192.048 425.05Z" fill="#ebebeb"></path>
<path d="M190.393 200.953L161.074 215.358C153.936 198.404 145.65 181.833 136.217 165.771C130.226 155.573 136.217 142.443 147.944 140.404C148.072 140.404 148.199 140.404 148.327 140.404C155.338 139.129 162.476 142.571 166.046 148.817C175.351 165.644 183.509 182.98 190.393 200.953Z" fill="#f06529"></path>
<path d="M356.998 464.694H195.873C192.559 464.694 190.009 462.017 190.009 458.831V430.149C190.009 421.736 196.893 414.853 205.306 414.853H333.034C349.478 414.853 362.862 428.237 362.862 444.681V458.831C362.99 462.017 360.313 464.694 356.998 464.694Z" fill="#ebebeb"></path>
<path opacity="0.4" d="M213.638 414.853H333.034C349.478 414.853 362.862 428.237 362.862 444.681V458.831C362.99 462.018 360.313 464.694 356.999 464.694H195.873C192.559 464.694 190.009 462.018 190.009 458.831V430.149C190.009 427.16 190.878 424.364 192.376 422.001C196.787 379.538 194.519 336.861 185.929 295.156C176.624 250.158 159.925 206.435 136.088 165.898C130.096 155.701 136.088 142.571 147.815 140.531C147.943 140.531 148.07 140.531 148.198 140.404C155.336 139.129 162.347 142.571 165.916 148.817C190.391 192.795 206.58 240.852 213.846 290.312C219.841 331.177 219.847 373.217 213.638 414.853Z" fill="white"></path>
<path d="M210.135 590C209.88 590 209.625 589.745 209.497 589.49C209.37 589.108 209.625 588.853 210.007 588.725C220.332 586.813 228.618 582.352 234.099 575.851C236.521 573.046 240.473 567.437 240.091 564.633C237.414 566.928 234.482 568.84 233.08 567.82C232.57 567.565 232.315 566.928 232.187 566.163C232.06 565.016 232.315 563.741 232.952 562.976C233.717 561.956 235.247 561.446 236.904 561.446C238.306 561.446 239.581 561.956 240.346 562.594C241.365 561.701 242.385 560.681 243.405 559.534C247.739 554.945 259.211 542.835 255.26 529.833C253.858 525.117 250.671 520.91 246.974 517.978C246.082 518.743 245.189 519.38 244.042 519.89C239.581 522.057 233.717 521.802 230.785 520.528C229.765 520.018 229.255 519.508 229.128 518.87C229 518.361 229.128 517.723 229.51 517.086C230.53 515.429 233.335 513.772 235.756 513.262C239.198 512.497 243.277 513.899 246.847 516.448C253.348 510.075 253.475 497.328 253.475 495.67C253.348 480.374 242.767 469.539 238.178 465.587C237.924 465.332 237.924 464.95 238.051 464.695C238.178 464.44 238.688 464.44 238.943 464.567C243.66 468.646 254.622 479.736 254.622 495.67C254.622 498.347 254.367 510.712 247.739 517.213C251.563 520.273 254.877 524.734 256.28 529.578C260.359 543.345 248.504 555.71 244.042 560.426C243.15 561.446 242.003 562.594 240.855 563.613C242.385 567.183 236.649 574.321 234.864 576.488C229.383 583.372 220.715 587.961 210.135 590ZM236.649 562.848C235.374 562.848 234.354 563.231 233.844 563.868C233.462 564.378 233.207 565.27 233.335 566.035C233.335 566.418 233.589 566.673 233.717 566.8C234.482 567.31 236.649 565.908 239.453 563.613C238.816 563.103 237.924 562.848 236.904 562.848C236.649 562.848 236.649 562.848 236.649 562.848ZM237.796 514.536C237.159 514.536 236.649 514.536 236.011 514.664C233.589 515.174 231.295 516.703 230.53 517.978C230.275 518.233 230.275 518.615 230.275 518.743C230.275 518.998 230.658 519.253 231.295 519.635C233.589 520.783 239.198 521.165 243.532 519.125C244.425 518.743 245.189 518.233 245.954 517.596C243.277 515.556 240.346 514.536 237.796 514.536Z" fill="none" stroke="#221b38" stroke-width="1"></path>
<path d="M339.991 589.999C339.864 589.999 339.864 589.999 339.991 589.999C329.283 587.96 320.743 583.371 315.134 576.742C313.222 574.575 307.613 567.437 309.143 563.867C307.995 562.72 306.848 561.573 305.956 560.681C301.494 555.964 289.639 543.472 293.719 529.832C295.121 524.988 298.435 520.527 302.259 517.467C295.758 510.839 295.376 498.601 295.376 495.925C295.503 480.118 306.338 468.9 311.055 464.821C311.31 464.566 311.692 464.566 311.947 464.949C312.202 465.331 312.202 465.586 311.82 465.841C307.231 469.793 296.65 480.628 296.523 495.925C296.523 497.582 296.65 510.329 303.152 516.703C306.721 514.153 310.8 512.878 314.242 513.516C316.791 514.026 319.468 515.683 320.488 517.34C320.87 517.977 320.998 518.615 320.87 519.125C320.743 519.762 320.105 520.399 319.213 520.782C316.281 522.184 310.29 522.311 305.956 520.144C304.936 519.634 303.916 518.997 303.024 518.232C299.327 521.164 296.141 525.371 294.738 530.087C290.914 543.089 302.259 555.199 306.593 559.788C307.613 560.936 308.633 561.955 309.653 562.848C310.417 562.083 311.692 561.7 313.094 561.7C314.752 561.7 316.281 562.21 317.046 563.23C317.683 564.122 317.938 565.27 317.811 566.417C317.683 567.182 317.301 567.692 316.919 568.074C315.389 569.094 312.585 567.182 309.908 564.887C309.398 567.564 313.477 573.173 315.899 576.105C321.38 582.478 329.666 586.94 339.991 588.98C340.374 589.107 340.501 589.362 340.501 589.744C340.501 589.872 340.246 589.999 339.991 589.999ZM310.8 563.612C313.604 566.034 315.771 567.309 316.536 566.799C316.664 566.672 316.791 566.417 316.919 566.034C317.046 565.27 316.791 564.377 316.409 563.867C315.899 563.23 314.752 562.72 313.477 562.848C312.33 562.848 311.31 563.103 310.8 563.612ZM304.171 517.467C304.936 518.105 305.701 518.615 306.593 518.997C310.927 521.037 316.409 520.654 318.831 519.507C319.468 519.252 319.85 518.87 319.85 518.615C319.85 518.487 319.85 518.105 319.596 517.85C318.831 516.703 316.536 515.045 314.114 514.536C310.927 514.026 307.358 515.173 304.171 517.467Z" fill="none" stroke="#221b38" stroke-width="1"></path>
<path d="M193.962 442.514C193.835 442.514 193.58 442.514 193.452 442.387C193.197 442.132 193.197 441.75 193.452 441.495L210.406 424.541C210.661 424.286 211.043 424.286 211.298 424.541C211.553 424.796 211.553 425.178 211.298 425.433L194.344 442.387C194.344 442.514 194.09 442.514 193.962 442.514Z" fill="none" stroke="#221b38" stroke-width="1"></path>
<path d="M313.532 468.39C313.404 468.39 313.149 468.39 313.022 468.263C312.767 468.008 312.767 467.626 313.022 467.371L329.976 450.417C330.23 450.162 330.613 450.162 330.868 450.417C331.123 450.672 331.123 451.054 330.868 451.309L313.914 468.135C313.786 468.263 313.659 468.39 313.532 468.39Z" fill="none" stroke="#221b38" stroke-width="1"></path>
<path d="M302.313 468.39C302.185 468.39 301.93 468.39 301.803 468.263C301.548 468.008 301.548 467.626 301.803 467.371L318.757 450.417C319.012 450.162 319.394 450.162 319.649 450.417C319.904 450.672 319.904 451.054 319.649 451.309L302.695 468.263C302.695 468.263 302.568 468.39 302.313 468.39Z" fill="none" stroke="#221b38" stroke-width="1"></path>
<path d="M280.13 468.39C280.002 468.39 279.747 468.39 279.62 468.263C279.365 468.008 279.365 467.626 279.62 467.371L296.574 450.417C296.829 450.162 297.211 450.162 297.466 450.417C297.721 450.672 297.721 451.054 297.466 451.309L280.512 468.263C280.385 468.263 280.257 468.39 280.13 468.39Z" fill="none" stroke="#221b38" stroke-width="1"></path>
<path d="M268.916 468.39C268.789 468.39 268.534 468.39 268.406 468.263C268.151 468.008 268.151 467.626 268.406 467.371L285.36 450.417C285.615 450.162 285.997 450.162 286.252 450.417C286.507 450.672 286.507 451.054 286.252 451.309L269.298 468.263C269.298 468.263 269.044 468.39 268.916 468.39Z" fill="none" stroke="#221b38" stroke-width="1"></path>
<path d="M257.822 468.39C257.694 468.39 257.44 468.39 257.312 468.263C257.057 468.008 257.057 467.626 257.312 467.371L274.266 450.417C274.521 450.162 274.903 450.162 275.158 450.417C275.413 450.672 275.413 451.054 275.158 451.309L258.204 468.263C258.077 468.263 257.949 468.39 257.822 468.39Z" fill="none" stroke="#221b38" stroke-width="1"></path>
<path d="M246.733 468.39C246.605 468.39 246.35 468.39 246.223 468.263C245.968 468.008 245.968 467.626 246.223 467.371L263.177 450.417C263.432 450.162 263.814 450.162 264.069 450.417C264.324 450.672 264.324 451.054 264.069 451.309L247.115 468.263C246.988 468.263 246.86 468.39 246.733 468.39Z" fill="none" stroke="#221b38" stroke-width="1"></path>
<path d="M235.514 468.39C235.387 468.39 235.132 468.39 235.004 468.263C234.749 468.008 234.749 467.626 235.004 467.371L251.958 450.417C252.213 450.162 252.596 450.162 252.851 450.417C253.106 450.672 253.106 451.054 252.851 451.309L235.897 468.263C235.897 468.263 235.642 468.39 235.514 468.39Z" fill="none" stroke="#221b38" stroke-width="1"></path>
<path d="M224.425 468.39C224.298 468.39 224.043 468.39 223.915 468.263C223.66 468.008 223.66 467.626 223.915 467.371L240.869 450.417C241.124 450.162 241.507 450.162 241.761 450.417C242.016 450.672 242.016 451.054 241.761 451.309L224.808 468.263C224.68 468.263 224.553 468.39 224.425 468.39Z" fill="none" stroke="#221b38" stroke-width="1"></path>
<path d="M213.207 468.39C213.079 468.39 212.824 468.39 212.697 468.263C212.442 468.008 212.442 467.626 212.697 467.371L229.651 450.417C229.906 450.162 230.288 450.162 230.543 450.417C230.798 450.672 230.798 451.054 230.543 451.309L213.589 468.263C213.589 468.263 213.462 468.39 213.207 468.39Z" fill="none" stroke="#221b38" stroke-width="1"></path>
<path d="M202.117 468.39C201.99 468.39 201.735 468.39 201.608 468.263C201.353 468.008 201.353 467.626 201.608 467.371L218.561 450.417C218.816 450.162 219.199 450.162 219.454 450.417C219.709 450.672 219.709 451.054 219.454 451.309L202.5 468.263C202.5 468.263 202.245 468.39 202.117 468.39Z" fill="none" stroke="#221b38" stroke-width="1"></path>
<path d="M195.744 448.761C195.616 448.761 195.361 448.761 195.234 448.633C194.979 448.378 194.979 447.996 195.234 447.741L212.188 430.787C212.443 430.532 212.825 430.532 213.08 430.787C213.335 431.042 213.335 431.424 213.08 431.679L196.126 448.633C195.999 448.761 195.871 448.761 195.744 448.761Z" fill="none" stroke="#221b38" stroke-width="1"></path>
<path d="M193.961 459.086C193.834 459.086 193.579 459.086 193.451 458.958C193.196 458.703 193.196 458.321 193.451 458.066L210.405 441.112C210.66 440.857 211.043 440.857 211.298 441.112C211.552 441.367 211.552 441.749 211.298 442.004L194.344 458.958C194.344 458.958 194.089 459.086 193.961 459.086Z" fill="none" stroke="#221b38" stroke-width="1"></path>
<path d="M195.744 465.332C195.616 465.332 195.361 465.332 195.234 465.204C194.979 464.949 194.979 464.567 195.234 464.312L212.188 447.358C212.443 447.103 212.825 447.103 213.08 447.358C213.335 447.613 213.335 447.996 213.08 448.251L196.126 465.204C195.999 465.204 195.871 465.332 195.744 465.332Z" fill="none" stroke="#221b38" stroke-width="1"></path>
<path d="M291.404 468.168C291.276 468.168 291.021 468.168 290.894 468.04C290.639 467.785 290.639 467.403 290.894 467.148L307.848 450.194C308.103 449.939 308.485 449.939 308.74 450.194C308.995 450.449 308.995 450.831 308.74 451.086L291.786 468.04C291.659 468.04 291.531 468.168 291.404 468.168Z" fill="none" stroke="#221b38" stroke-width="1"></path>
<path d="M155.848 218.545C155.593 218.545 155.338 218.418 155.338 218.163C155.211 217.908 155.338 217.525 155.593 217.271L194.727 198.15C194.982 198.022 195.364 198.15 195.619 198.405C195.747 198.66 195.619 199.042 195.364 199.297L156.23 218.418C155.975 218.418 155.975 218.545 155.848 218.545Z" fill="none" stroke="#221b38" stroke-width="1"></path>
<path d="M180.576 178.264C180.321 178.264 180.066 178.136 179.939 177.881C175.477 168.066 170.506 158.378 165.279 148.945C161.965 142.954 155.082 139.64 148.198 140.914C148.071 140.914 147.943 140.914 147.816 141.042C142.462 141.934 138.128 145.376 135.833 150.22C133.539 155.191 133.794 160.673 136.598 165.389C136.725 165.644 136.725 166.027 136.343 166.281C136.088 166.409 135.706 166.409 135.451 166.027C132.519 160.928 132.136 154.936 134.686 149.71C137.108 144.356 141.824 140.787 147.688 139.767C147.816 139.767 147.943 139.767 148.071 139.767C155.464 138.492 162.857 142.062 166.427 148.435C171.653 157.868 176.624 167.556 181.086 177.372C181.213 177.754 181.086 178.009 180.831 178.264C180.831 178.264 180.703 178.264 180.576 178.264Z" fill="none" stroke="#221b38" stroke-width="1"></path>
<path d="M451.709 192.158C451.709 192.158 478.605 172.782 486.636 168.32C494.794 163.986 515.445 162.329 530.359 166.918C533.164 167.81 522.073 174.184 519.142 174.566C519.142 174.566 565.542 173.037 565.159 178.136C564.904 183.235 556.491 186.421 544.381 188.078C532.271 189.736 502.57 194.07 487.273 192.158C478.35 200.316 458.337 223.261 458.337 223.261L442.913 201.591L451.709 192.158Z" fill="#F8BCBF"></path>
<path d="M366.174 290.184C366.174 290.184 400.974 273.613 412.574 276.8C417.418 278.074 425.194 279.732 432.205 284.448C441.893 290.949 443.295 299.745 439.089 301.912C435.774 303.569 419.458 298.98 419.458 298.98C419.458 298.98 412.447 302.422 406.711 307.011C402.377 310.452 380.196 312.237 380.196 312.237C357.379 290.057 366.174 290.184 366.174 290.184Z" fill="#F8BCBF"></path>
<path d="M398.425 259.464C394.601 259.464 390.776 258.827 387.08 257.552L298.486 227.596C286.504 223.644 301.928 216.888 305.88 204.906C309.831 192.923 286.886 169.341 298.869 173.293L396.258 212.427L452.346 180.813C462.544 173.42 489.568 210.26 479.37 217.653L418.693 252.581C412.829 257.17 405.691 259.464 398.425 259.464Z" fill="none" stroke="#221b38" stroke-width="1"></path>
<path d="M347.31 71.8233C349.222 70.6761 362.479 59.4585 360.95 55.3794C359.93 52.575 353.811 53.5948 352.791 50.408C352.027 48.1135 354.831 45.6915 356.616 43.0146C362.097 35.3662 358.783 17.1376 351.389 14.9706C323.855 6.93982 303.46 41.1025 303.46 41.1025C306.009 36.131 306.009 31.1596 303.46 28.7376C300.145 25.5508 293.389 28.3552 292.497 28.7376C280.514 33.7091 278.22 49.8981 274.141 49.2607C271.591 48.7508 272.356 42.6321 268.532 41.1025C265.09 39.7003 259.227 42.5047 257.569 46.7113C255.02 53.2124 263.688 60.0959 261.394 63.6651C260.246 65.4497 256.422 66.342 245.842 63.2827C240.361 86.1003 250.558 107.643 253.49 115.674C255.912 122.685 259.354 132.245 266.875 133.648C272.356 134.667 279.622 131.226 281.662 125.872C284.594 118.351 275.288 112.36 276.053 99.7399C276.308 94.2585 279.112 93.8761 280.642 91.3267C298.106 89.9245 335.2 79.4717 347.31 71.8233Z" fill="none" stroke="#221b38" stroke-width="1"></path>
<path d="M266.745 179.156C266.745 179.156 280.385 134.668 280.895 118.479C280.895 118.479 262.411 124.215 264.069 112.742C265.726 101.142 280.895 103.947 280.895 103.947C280.258 98.338 281.532 92.8567 284.719 87.5028C284.719 87.5028 311.616 86.3556 343.101 73.8633L349.603 120.518L341.954 122.048C341.954 122.048 335.836 153.534 332.521 154.681C329.207 155.828 309.321 156.211 309.321 156.211L307.664 204.65C307.537 204.65 272.609 198.022 266.745 179.156Z" fill="#F8BCBF"></path>
<path d="M270.445 160.927C262.541 170.997 183.636 225.428 230.418 358.127H333.544C333.544 358.127 340.555 263.542 337.495 247.353C335.583 236.901 335.456 194.325 335.073 191.775C334.563 188.334 311.491 179.028 308.431 182.597L307.794 194.58C286.634 186.294 271.592 159.652 270.445 160.927Z" fill="none" stroke="#221b38" stroke-width="1"></path>
<path d="M291.732 349.204C291.222 349.204 290.712 349.204 290.202 349.204C283.956 348.949 272.484 346.018 266.747 329.191C265.6 325.622 264.325 320.905 263.051 314.914C261.139 305.864 258.844 293.371 256.422 277.82C252.343 251.815 249.156 226.321 249.029 225.301C247.499 212.809 256.295 201.336 268.787 199.807C281.279 198.277 292.752 207.072 294.281 219.565C297.596 246.079 303.205 284.193 306.774 303.697C322.453 296.558 346.8 289.42 366.431 279.604C377.776 273.996 398.044 314.914 386.699 320.523C311.745 357.873 297.851 349.204 291.732 349.204Z" fill="none" stroke="#221b38" stroke-width="1"></path>
<path d="M291.732 349.204C291.222 349.204 290.712 349.204 290.202 349.204C283.956 348.949 272.484 346.018 266.747 329.191C265.6 325.622 264.325 320.905 263.051 314.914C261.139 305.864 258.844 293.371 256.422 277.82C252.343 251.815 249.156 226.321 249.029 225.301C247.499 212.809 256.295 201.336 268.787 199.807C281.279 198.277 292.752 207.072 294.281 219.565C297.596 246.079 303.205 284.193 306.774 303.697C322.453 296.558 346.8 289.42 366.431 279.604C377.776 273.996 398.044 314.914 386.699 320.523C311.745 357.873 297.851 349.204 291.732 349.204Z" fill="black" fill-opacity="0.28"></path>
<path d="M306.774 313.894C306.391 313.894 306.136 313.511 306.136 313.129C307.411 303.186 294.026 220.202 289.31 208.602C287.143 203.248 276.945 202.865 268.787 203.375C259.736 204.012 251.196 206.052 251.068 206.052C250.686 206.18 250.431 205.925 250.303 205.542C250.176 205.16 250.431 204.905 250.813 204.777C252.215 204.395 285.868 196.619 290.585 208.092C294.919 218.799 308.941 301.656 307.411 313.256C307.411 313.766 307.029 313.894 306.774 313.894Z" fill="#060606"></path>
<path d="M298.872 309.56C298.618 309.56 298.49 309.432 298.363 309.305C298.235 309.05 298.235 308.667 298.618 308.413C298.745 308.285 317.993 296.813 357 282.408C357.382 282.281 357.637 282.408 357.765 282.791C357.892 283.173 357.765 283.428 357.382 283.555C318.503 297.96 299.51 309.432 299.255 309.56C299.127 309.432 299 309.56 298.872 309.56Z" fill="#060606"></path>
<path d="M289.695 352.391C277.075 352.391 266.24 333.143 257.572 295.284C251.071 266.857 248.139 237.921 248.139 237.539C248.139 237.156 248.394 236.901 248.649 236.901C249.031 236.901 249.286 237.156 249.286 237.411C249.414 238.559 260.759 352.391 289.95 351.117C325.77 349.46 380.455 318.611 381.093 318.229C381.348 318.101 381.73 318.101 381.985 318.484C382.24 318.866 382.113 319.121 381.73 319.376C381.22 319.631 326.152 350.734 290.077 352.391C290.077 352.391 289.822 352.391 289.695 352.391Z" fill="#060606"></path>
<path d="M326.023 258.316L324.748 255.512C323.856 253.6 322.454 250.54 321.179 250.413C320.542 250.413 319.904 251.178 319.14 252.58L318.375 254.237L317.992 252.453C317.355 249.521 317.482 246.589 317.482 243.784C317.482 243.02 317.482 242.255 317.482 241.49C317.482 241.107 317.737 240.853 318.12 240.853C318.502 240.853 318.757 241.107 318.757 241.49C318.757 242.255 318.757 243.02 318.757 243.784C318.757 246.079 318.757 248.373 319.012 250.54C319.777 249.648 320.414 249.138 321.307 249.266C322.964 249.266 324.238 251.305 325.258 253.345C325.513 252.07 326.023 251.178 326.66 250.668C327.808 249.776 329.337 250.286 330.74 250.668C332.652 251.305 333.799 251.56 334.564 250.158C334.691 249.903 335.074 249.776 335.456 249.903C335.711 250.031 335.839 250.413 335.711 250.795C334.436 253.217 332.142 252.453 330.357 251.943C329.21 251.56 328.063 251.178 327.298 251.688C326.66 252.198 326.278 253.472 326.151 255.639L326.023 258.316Z" fill="#ebebeb"></path>
<path d="M243.548 309.687C243.293 309.687 242.911 309.432 242.911 309.177C242.528 306.883 240.999 304.461 239.596 302.294C238.959 301.274 238.322 300.381 237.812 299.489C237.684 299.234 237.812 298.852 238.067 298.597C238.322 298.469 238.704 298.597 238.959 298.852C239.469 299.744 239.979 300.636 240.616 301.529C242.146 303.823 243.803 306.373 244.185 308.922C244.313 309.305 244.058 309.687 243.548 309.687C243.676 309.687 243.676 309.687 243.548 309.687Z" fill="#f06529"></path>
<path d="M251.453 305.736C251.198 305.736 250.816 305.482 250.816 305.227C250.433 301.785 248.521 298.343 245.462 295.284C245.207 295.029 245.207 294.646 245.462 294.391C245.717 294.136 246.099 294.136 246.354 294.391C249.541 297.578 251.581 301.402 252.091 305.099C252.218 305.354 251.963 305.736 251.453 305.736C251.581 305.736 251.581 305.736 251.453 305.736Z" fill="#f06529"></path>
<path d="M331.124 133.903C331.124 133.903 327.937 143.974 321.308 143.464C316.592 143.081 315.444 135.051 315.189 134.796L331.124 133.903Z" fill="white"></path>
<path d="M317.993 111.85C319.401 111.85 320.542 110.708 320.542 109.3C320.542 107.892 319.401 106.751 317.993 106.751C316.585 106.751 315.443 107.892 315.443 109.3C315.443 110.708 316.585 111.85 317.993 111.85Z" fill="#464646"></path>
<path d="M344.762 104.967C346.17 104.967 347.312 103.826 347.312 102.418C347.312 101.01 346.17 99.8682 344.762 99.8682C343.354 99.8682 342.213 101.01 342.213 102.418C342.213 103.826 343.354 104.967 344.762 104.967Z" fill="#464646"></path>
<path d="M308.562 106.241C308.179 106.241 307.797 106.114 307.542 105.732C307.032 105.222 307.16 104.329 307.669 103.947L320.799 92.8568C321.309 92.3469 322.201 92.4744 322.584 92.9843C323.094 93.4942 322.966 94.3865 322.456 94.7689L309.327 105.859C309.199 106.114 308.944 106.241 308.562 106.241Z" fill="#464646"></path>
<path d="M354.452 99.8683C354.325 99.8683 354.197 99.8683 354.07 99.8683L339.92 95.7892C339.283 95.5342 338.9 94.8969 339.028 94.2595C339.283 93.6221 339.92 93.2397 340.558 93.3672L354.707 97.4463C355.344 97.7013 355.727 98.3386 355.599 98.976C355.472 99.4859 354.962 99.8683 354.452 99.8683Z" fill="#464646"></path>
<path d="M306.139 100.632C305.502 100.632 304.865 100.122 304.865 99.4849C304.865 98.7201 305.375 98.2102 306.012 98.0827L320.416 97.1904C321.054 97.1904 321.691 97.7003 321.818 98.3377C321.818 99.1025 321.309 99.6124 320.671 99.7399L306.139 100.632C306.267 100.632 306.267 100.632 306.139 100.632Z" fill="#464646"></path>
<path d="M333.29 124.98C333.035 124.98 332.781 124.725 332.653 124.47C332.526 124.088 332.781 123.833 333.163 123.705L347.312 120.773C347.695 120.646 347.95 120.901 348.077 121.283C348.205 121.666 347.95 121.921 347.567 122.048L333.418 124.98C333.29 124.98 333.29 124.98 333.29 124.98Z" fill="#464646"></path>
<path d="M272.996 114.145C272.868 114.145 272.741 114.145 272.613 114.017C272.358 113.762 272.231 113.38 272.486 113.125C272.613 112.998 274.525 110.448 278.987 111.34C279.369 111.468 279.497 111.723 279.497 112.105C279.369 112.488 279.114 112.615 278.732 112.615C275.163 111.85 273.633 113.762 273.633 113.89C273.378 114.145 273.123 114.145 272.996 114.145Z" fill="#464646"></path>
<path d="M277.458 116.312C277.075 116.312 276.82 115.93 276.82 115.547C276.948 114.145 274.271 111.596 272.486 110.321C272.231 110.066 272.104 109.683 272.359 109.429C272.614 109.174 272.996 109.046 273.251 109.301C273.761 109.683 278.35 113.125 278.095 115.675C278.095 116.057 277.84 116.312 277.458 116.312Z" fill="#464646"></path>
<path d="M294.792 82.7861L289.821 108.79C289.821 108.79 278.093 104.074 272.994 103.692C264.708 98.0828 280.643 78.9619 280.643 78.9619L294.792 82.7861Z" fill="none" stroke="#221b38" stroke-width="1"></path>
<path d="M333.796 59.5867L332.649 59.0768C333.541 57.1647 335.454 56.145 337.111 55.2527C337.621 54.9977 338.258 54.6153 338.768 54.3604C345.524 49.8988 354.32 43.6527 361.713 35.7494C367.067 30.1406 371.656 24.1494 369.999 13.9516C369.744 12.5494 369.106 11.7845 367.832 11.4021C361.968 9.74496 346.926 18.7955 342.72 23.6395L341.7 22.8746C346.161 17.6483 361.458 8.34276 368.087 10.2548C369.871 10.7647 370.891 12.0395 371.273 13.8241C373.058 24.5318 368.214 30.7779 362.733 36.6417C355.212 44.6724 346.416 50.9186 339.533 55.5076C339.023 55.89 338.385 56.145 337.876 56.5274C336.218 57.1647 334.561 58.0571 333.796 59.5867Z" fill="#f06529"></path>
<path d="M437.559 287.762C437.559 287.762 437.432 287.762 437.559 287.762C436.284 287.38 434.372 286.742 432.078 285.977C427.234 284.193 420.478 281.771 417.291 281.771C417.036 281.771 416.781 281.516 416.781 281.261C416.781 281.006 417.036 280.751 417.291 280.751C420.733 280.751 427.234 283.045 432.46 284.958C434.627 285.722 436.539 286.487 437.687 286.742C437.942 286.87 438.069 287.125 438.069 287.38C437.942 287.634 437.814 287.762 437.559 287.762Z" fill="none" stroke="#221b38" stroke-width="1"></path>
<path d="M443.171 296.303C443.043 296.303 443.043 296.303 443.171 296.303C441.896 295.921 440.239 295.284 438.327 294.519C433.865 292.734 427.619 290.185 422.903 290.185C422.648 290.185 422.393 289.93 422.393 289.675C422.393 289.42 422.648 289.165 422.903 289.165C427.874 289.165 434.12 291.714 438.709 293.499C440.622 294.264 442.151 294.901 443.298 295.156C443.553 295.284 443.681 295.539 443.681 295.794C443.553 296.176 443.298 296.303 443.171 296.303Z" fill="none" stroke="#221b38" stroke-width="1"></path>
<path d="M341.828 360.677C341.828 360.677 453.749 353.539 459.74 367.306C465.731 381.073 465.768 516.6 465.768 516.6L433.361 525.752L420.224 389.614L341.828 360.677Z" fill="#f06529"></path>
<path d="M341.828 360.677C341.828 360.677 453.749 353.539 459.74 367.306C465.731 381.073 465.768 516.6 465.768 516.6L433.361 525.752L420.224 389.614L341.828 360.677Z" fill="white" fill-opacity="0.43"></path>
<path d="M465.73 515.556C465.73 515.556 465.73 520.91 465.73 523.077C465.73 528.049 465.73 530.853 465.73 530.853L432.714 527.627L432.077 515.174L465.73 515.556Z" fill="#F9C5C8"></path>
<path d="M465.73 525.627V546.277L501.804 561.957C504.864 563.231 503.844 567.693 500.657 567.693L435.136 567.31L432.714 525.882L465.73 525.627Z" fill="#F2F1F8"></path>
<path d="M515.826 582.861H412.318C410.151 582.861 408.494 581.204 408.494 579.037C408.494 576.87 410.151 575.213 412.318 575.213H515.826C517.993 575.213 519.65 576.87 519.65 579.037C519.65 581.204 517.865 582.861 515.826 582.861Z" fill="none" stroke="#221b38" stroke-width="1"></path>
<path d="M451.708 576.488L474.27 548.316C474.27 548.316 505.756 560.299 515.316 567.692C520.16 571.516 517.228 579.292 511.11 579.037L451.708 576.488Z" fill="none" stroke="#221b38" stroke-width="1"></path>
<path fill-rule="evenodd" clip-rule="evenodd" d="M517.101 575.417C518.61 575.924 519.65 577.32 519.65 579.037C519.65 581.204 517.865 582.861 515.826 582.861H412.318C410.151 582.861 408.494 581.204 408.494 579.037C408.494 576.87 410.151 575.213 412.318 575.213H452.726L474.268 548.316C474.268 548.316 505.753 560.299 515.314 567.692C517.915 569.746 518.274 572.94 517.101 575.417Z" fill="white" fill-opacity="0.19"></path>
<path d="M230.417 358.127V384.514C230.417 399.81 242.91 412.303 258.206 412.303H377.138C383.512 412.303 388.611 417.402 388.611 423.775V575.723C388.611 579.929 391.925 583.244 396.132 583.244H480.518C483.705 583.244 495.815 579.164 493.266 577.252L433.736 545.894L430.932 396.369C430.677 379.797 417.929 366.158 401.485 364.628L333.543 358.254H230.417V358.127Z" fill="#f06529"></path>
<path d="M433.735 525.627H388.609V533.02H433.735V525.627Z" fill="#F8B8BB"></path>
<path d="M388.609 533.02V575.723C388.609 579.929 391.924 583.244 396.13 583.244H480.517C483.704 583.244 495.814 579.165 493.264 577.253L433.735 545.894V533.02H388.609Z" fill="white"></path>
<path d="M433.735 526.264H388.609C388.227 526.264 387.972 526.009 387.972 525.627C387.972 525.244 388.227 524.989 388.609 524.989H433.735C434.117 524.989 434.372 525.244 434.372 525.627C434.372 526.009 434.117 526.264 433.735 526.264Z" fill="none" stroke="#221b38" stroke-width="1"></path>
<path d="M433.735 534.294H388.609C388.227 534.294 387.972 534.039 387.972 533.657C387.972 533.274 388.227 533.02 388.609 533.02H433.735C434.117 533.02 434.372 533.274 434.372 533.657C434.372 534.039 434.117 534.294 433.735 534.294Z" fill="none" stroke="#221b38" stroke-width="1"></path>
<path d="M465.858 515.938H433.735C433.353 515.938 433.098 515.683 433.098 515.3C433.098 514.918 433.353 514.663 433.735 514.663H465.731C466.113 514.663 466.368 514.918 466.368 515.3C466.368 515.683 466.113 515.938 465.858 515.938Z" fill="none" stroke="#221b38" stroke-width="1"></path>
<path d="M465.858 526.264H433.735C433.353 526.264 433.098 526.009 433.098 525.627C433.098 525.244 433.353 524.989 433.735 524.989H465.731C466.113 524.989 466.368 525.244 466.368 525.627C466.368 526.009 466.113 526.264 465.858 526.264Z" fill="none" stroke="#221b38" stroke-width="1"></path>
<path d="M493.648 589.745H390.14C387.973 589.745 386.316 588.088 386.316 585.921C386.316 583.754 387.973 582.097 390.14 582.097H493.648C495.815 582.097 497.472 583.754 497.472 585.921C497.472 588.088 495.688 589.745 493.648 589.745Z" fill="none" stroke="#221b38" stroke-width="1"></path>
<path d="M429.657 583.371L452.22 555.199C452.22 555.199 483.705 567.182 493.266 574.575C498.11 578.399 495.178 586.175 489.059 585.92L429.657 583.371Z" fill="none" stroke="#221b38" stroke-width="1"></path>
<path d="M278.728 390.377C277.963 390.377 277.198 390.249 276.433 390.122C270.952 388.975 271.207 382.219 271.334 377.247C271.334 376.482 271.334 375.718 271.334 375.08C271.334 374.698 271.589 374.443 271.972 374.443C272.354 374.443 272.609 374.698 272.609 375.08C272.609 375.718 272.609 376.482 272.609 377.247C272.482 381.964 272.354 387.955 276.688 388.847C279.365 389.485 282.042 388.847 284.592 387.063C291.22 382.601 295.044 372.531 295.299 370.746C295.299 370.364 295.682 370.109 296.064 370.236C296.447 370.236 296.702 370.619 296.574 371.001C296.064 373.678 291.858 383.748 285.356 388.21C283.189 389.74 281.022 390.377 278.728 390.377Z" fill="none" stroke="#221b38" stroke-width="1"></path>
<path d="M408.113 500.642C407.731 500.642 407.476 500.387 407.476 500.005V410.392C407.476 400.576 399.572 392.673 389.757 392.673L293.515 389.868C293.133 389.868 292.878 389.614 292.878 389.231C292.878 388.849 293.26 388.594 293.515 388.594L389.757 391.398C400.21 391.398 408.75 399.939 408.75 410.392V500.005C408.75 500.26 408.496 500.642 408.113 500.642Z" fill="none" stroke="#221b38" stroke-width="1"></path>
<path d="M398.935 555.582C398.68 555.582 398.425 555.455 398.297 555.2C398.17 554.817 398.297 554.562 398.68 554.435C399.7 554.053 401.739 553.415 403.396 553.925C403.779 554.053 403.906 554.435 403.779 554.69C403.651 555.072 403.269 555.2 403.014 555.072C402.121 554.817 400.719 554.945 399.19 555.582C399.062 555.582 398.935 555.582 398.935 555.582Z" fill="none" stroke="#221b38" stroke-width="1"></path>
<path d="M400.592 560.299C400.337 560.299 400.083 560.172 399.955 559.917C399.828 559.662 399.955 559.279 400.21 559.024L400.592 558.897C401.612 558.387 402.377 558.005 403.652 558.132C404.034 558.132 404.289 558.387 404.289 558.769C404.289 559.152 403.907 559.407 403.652 559.407C402.632 559.407 401.995 559.662 401.102 560.044L400.72 560.172C400.847 560.299 400.72 560.299 400.592 560.299Z" fill="none" stroke="#221b38" stroke-width="1"></path>
<path d="M427.362 548.061C427.107 548.061 426.852 547.934 426.725 547.679C426.597 547.296 426.725 547.041 427.107 546.786C427.362 546.659 427.617 546.531 427.872 546.404C428.382 546.149 428.892 545.894 429.656 545.639C430.166 545.512 430.676 545.512 431.186 545.512C431.951 545.512 432.588 545.512 433.098 545.129C433.353 544.874 433.736 545.002 433.991 545.257C434.245 545.512 434.118 545.894 433.863 546.149C432.971 546.786 431.951 546.786 431.186 546.786C430.804 546.786 430.294 546.786 429.911 546.914C429.401 547.041 429.019 547.296 428.509 547.551C428.254 547.679 427.999 547.806 427.617 547.934C427.489 548.061 427.362 548.061 427.362 548.061Z" fill="none" stroke="#221b38" stroke-width="1"></path>
<path d="M454.387 544.62C454.132 544.62 453.877 544.492 453.877 544.237C453.75 543.982 453.877 543.6 454.132 543.345C454.387 543.217 454.642 543.09 454.897 542.835C455.534 542.325 456.299 541.815 457.191 541.943C457.574 542.07 457.701 542.325 457.701 542.708C457.574 543.09 457.319 543.217 456.936 543.217C456.681 543.09 456.172 543.472 455.662 543.855C455.407 544.11 455.024 544.365 454.769 544.492C454.642 544.62 454.514 544.62 454.387 544.62Z" fill="none" stroke="#221b38" stroke-width="1"></path>
<path d="M455.151 547.423C455.023 547.423 454.896 547.423 454.768 547.296C454.513 547.041 454.386 546.658 454.641 546.404C455.151 545.639 456.298 544.746 457.19 544.364C457.573 544.237 457.827 544.491 457.955 544.746C458.082 545.129 457.828 545.384 457.573 545.511C456.935 545.766 456.043 546.531 455.66 547.041C455.66 547.296 455.406 547.423 455.151 547.423Z" fill="none" stroke="#221b38" stroke-width="1"></path>
<path d="M336.601 240.087C336.601 240.087 335.581 218.417 331.375 212.426C331.375 212.426 352.407 241.744 352.407 245.186L336.601 240.087Z" fill="black" fill-opacity="0.81"></path>
<path d="M504.994 232.567C504.484 232.567 503.974 232.44 503.464 232.312C500.66 231.42 498.875 227.723 499.002 224.791C499.002 221.222 501.679 218.673 502.954 217.525C506.778 213.956 512.642 211.407 518.761 210.897C519.271 203.758 519.271 192.668 519.398 180.431C519.525 157.613 519.653 131.864 522.457 120.009L523.732 120.264C520.928 131.864 520.8 157.613 520.673 180.431C520.545 192.541 520.545 203.503 520.035 210.769C523.732 210.642 527.429 211.407 530.871 213.191C531.253 213.446 531.763 213.701 532.145 213.956C534.185 210.259 536.989 207.71 538.264 206.435C550.756 194.708 572.044 196.365 578.29 197.13L578.163 198.404C572.044 197.64 551.266 196.11 539.284 207.327C538.009 208.475 535.332 211.024 533.42 214.593C537.372 217.27 540.686 221.349 541.706 224.664C542.088 226.066 542.088 227.213 541.578 227.978C541.068 228.87 539.921 229.635 538.391 230.018C536.224 230.4 533.93 230.018 532.528 228.87C529.978 226.958 530.106 223.516 530.106 221.859C530.106 219.31 530.743 217.143 531.763 215.103C531.38 214.848 530.87 214.593 530.488 214.338C527.301 212.681 523.732 211.916 520.163 212.044C519.908 214.976 519.653 217.143 519.143 218.418C516.594 225.429 510.092 232.567 504.994 232.567ZM518.633 212.171C512.897 212.554 507.416 214.976 503.846 218.418C502.572 219.565 500.277 221.732 500.277 224.791C500.277 227.213 501.679 230.4 503.846 231.037C507.925 232.312 515.191 225.556 517.741 218.035C518.123 217.015 518.506 214.976 518.633 212.171ZM532.655 215.996C531.763 217.78 531.253 219.82 531.253 222.114C531.253 223.517 531.253 226.576 533.165 228.106C534.312 228.998 536.224 229.38 538.009 228.998C539.156 228.743 539.921 228.233 540.303 227.596C540.558 227.086 540.558 226.193 540.303 225.174C539.539 222.624 536.607 218.673 532.655 215.996Z" fill="none" stroke="#221b38" stroke-width="1"></path>
<path d="M524.623 139.257C514.298 139.257 506.012 130.844 506.012 120.646C506.012 110.448 514.425 102.035 524.623 102.035C534.821 102.035 543.234 110.448 543.234 120.646C543.234 130.844 534.821 139.257 524.623 139.257ZM524.623 103.182C515.062 103.182 507.287 110.958 507.287 120.519C507.287 130.079 515.062 137.855 524.623 137.855C534.183 137.855 541.959 130.079 541.959 120.519C541.959 110.958 534.183 103.182 524.623 103.182Z" fill="none" stroke="#221b38" stroke-width="1"></path>
<path d="M522.968 122.43C524.517 122.43 525.772 121.175 525.772 119.626C525.772 118.077 524.517 116.821 522.968 116.821C521.419 116.821 520.163 118.077 520.163 119.626C520.163 121.175 521.419 122.43 522.968 122.43Z" fill="none" stroke="#221b38" stroke-width="1"></path>
</svg>
