<svg width="200" height="150" viewBox="0 0 800 600" fill="none" xmlns="http://www.w3.org/2000/svg" data-reactroot="">
<path d="M361.543 304.29L269.715 349.148C260.214 353.789 249.135 346.871 249.135 336.298V69.1783C249.135 63.7171 252.249 58.727 257.161 56.3279L271.625 49.2615L348.998 11.4692C358.499 6.82806 369.578 13.7462 369.578 24.3196V291.439C369.569 296.909 366.455 301.899 361.543 304.29Z" fill="none" stroke="#221b38" stroke-width="1"></path>
<path opacity="0.1" d="M391.431 165.029L212.668 253.403C209.135 255.148 205 252.583 205 248.639V186.717C205 184.693 206.143 182.852 207.957 181.953L386.72 93.5707C390.254 91.8259 394.389 94.3908 394.389 98.334V160.257C394.389 162.289 393.246 164.13 391.431 165.029Z" fill="black"></path>
<path d="M408.401 171.799L247.33 251.431C237.917 256.081 226.898 249.233 226.898 238.738V196.54C226.898 191.157 229.952 186.237 234.785 183.847L395.847 104.223C405.26 99.5729 416.279 106.421 416.279 116.916V159.114C416.287 164.497 413.225 169.417 408.401 171.799Z" fill="#ebebeb"></path>
<path fill-rule="evenodd" clip-rule="evenodd" d="M352.745 50.6945C353.273 51.7768 352.824 53.0828 351.742 53.6114L267.564 94.7275C266.482 95.2562 265.176 94.8073 264.648 93.725C264.119 92.6427 264.568 91.3368 265.65 90.8081L349.828 49.692C350.91 49.1633 352.216 49.6122 352.745 50.6945Z" fill="#f06529"></path>
<path fill-rule="evenodd" clip-rule="evenodd" d="M352.745 72.1388C353.273 73.2211 352.824 74.5271 351.742 75.0558L267.564 116.172C266.482 116.701 265.176 116.252 264.648 115.169C264.119 114.087 264.568 112.781 265.65 112.252L349.828 71.1363C350.91 70.6077 352.216 71.0565 352.745 72.1388Z" fill="#f06529"></path>
<path fill-rule="evenodd" clip-rule="evenodd" d="M352.745 240.179C353.273 241.262 352.824 242.568 351.742 243.096L267.564 284.212C266.482 284.741 265.176 284.292 264.648 283.21C264.119 282.128 264.568 280.822 265.65 280.293L349.828 239.177C350.91 238.648 352.216 239.097 352.745 240.179Z" fill="#f06529"></path>
<path fill-rule="evenodd" clip-rule="evenodd" d="M352.745 272.38C353.273 273.462 352.824 274.768 351.742 275.296L267.564 316.413C266.482 316.941 265.176 316.492 264.648 315.41C264.119 314.328 264.568 313.022 265.65 312.493L349.828 271.377C350.91 270.848 352.216 271.297 352.745 272.38Z" fill="#f06529"></path>
<path d="M288.303 59.678L340.56 33.8289C344.076 32.0928 346.466 28.6904 346.92 24.7995L348.438 11.7397L271.623 49.2616C271.58 57.8634 280.6 63.4904 288.303 59.678Z" fill="#f06529"></path>
<path fill-rule="evenodd" clip-rule="evenodd" d="M400.076 129.271C400.394 129.92 400.124 130.704 399.475 131.021L249.719 204.18C249.07 204.497 248.286 204.228 247.969 203.579C247.652 202.929 247.921 202.146 248.57 201.829L398.326 128.669C398.976 128.352 399.759 128.621 400.076 129.271Z" fill="none" stroke="#221b38" stroke-width="1"></path>
<path fill-rule="evenodd" clip-rule="evenodd" d="M400.076 151.796C400.394 152.445 400.124 153.229 399.475 153.546L249.719 226.705C249.07 227.023 248.286 226.753 247.969 226.104C247.652 225.455 247.921 224.671 248.57 224.354L398.326 151.195C398.976 150.877 399.759 151.147 400.076 151.796Z" fill="none" stroke="#221b38" stroke-width="1"></path>
<path d="M478.006 179.589L439.472 218.096L354.614 192.526C354.614 192.526 342.942 182.956 334.549 182.677C326.148 182.406 306.074 184.012 307.304 187.083C308.534 190.153 315.714 191.296 321.577 192.5C327.439 193.704 332.734 197.63 331.653 199.671C330.562 201.713 329.707 205.769 344.564 204.731C359.421 203.693 432.703 251.239 444.951 242.785C457.199 234.332 486.311 213.822 486.311 213.822L488.955 179.161L478.006 179.589Z" fill="#E0955C"></path>
<path d="M523.2 433.413C523.113 444.065 520.827 573.241 520.059 576.836L506.624 575.309C505.499 568.513 493.495 435.978 492.404 428.484L523.2 433.413Z" fill="#E0955C"></path>
<path d="M505.532 565.948C505.532 565.948 459.408 582.21 465.297 590L521.052 588.116C522.055 588.09 522.892 587.331 523.006 586.336C523.407 582.768 524.009 573.084 521.235 569.761C520.677 569.089 519.368 569.691 518.155 570.11C516.803 570.572 514.552 577.377 506.291 570.65C505.523 570.022 506.439 566.829 505.532 565.948Z" fill="#f06529"></path>
<path d="M492.517 85.7104C492.517 85.7104 488.181 170.42 493.154 174.486C498.126 178.542 543.927 133.23 543.927 133.23L547.373 95.3156L492.517 85.7104Z" fill="black"></path>
<path d="M551.945 424.55C551.046 433.815 551.291 571.47 550.976 574.82H537.454C536.852 569.359 521.306 430.779 520.6 424.55H551.945Z" fill="#E0955C"></path>
<path d="M538.659 565.948C538.659 565.948 492.535 582.21 498.424 590L554.179 588.116C555.182 588.09 556.019 587.331 556.133 586.336C556.534 582.768 557.136 573.084 554.362 569.761C553.804 569.089 552.495 569.691 551.282 570.11C549.93 570.572 547.679 577.377 539.418 570.65C538.65 570.022 539.566 566.829 538.659 565.948Z" fill="none" stroke="#221b38" stroke-width="1"></path>
<path d="M468.543 400.358L494.645 284.617L551.944 282.174C568.843 296.394 569.27 342.518 578.343 415.18C581.972 444.222 475.034 439.529 470.017 422.072C467.993 415.032 467.566 407.625 468.543 400.358Z" fill="#f06529"></path>
<path d="M575.673 197.159L566.783 271.208C565.728 296.883 542.321 294.658 518.208 293.908C494.095 293.166 485.956 285.227 486.793 259.343C486.793 259.343 480.582 177.382 489.986 175.489C497.803 173.909 504.267 165.508 512.485 165.508C512.983 165.508 520.197 155.406 520.773 155.423C521.358 155.441 521.986 155.467 522.649 155.511C530.509 155.982 529.986 158.355 543.63 164.427C543.63 164.427 553.855 169.739 559.037 172.714C568.415 178.097 569.723 183.864 570.238 194.664C570.317 196.199 575.891 195.885 575.673 197.159Z" fill="none" stroke="#221b38" stroke-width="1"></path>
<path d="M554.021 170.377C540.376 164.305 524.918 154.438 517.057 153.958L490.563 102.312C490.563 102.312 480.408 94.5304 483.801 87.368C487.204 80.1969 525.11 65.9768 530.309 71.8742C530.309 71.8742 541.092 70.9495 548.935 85.3441C553.314 93.3876 558.479 153.164 554.021 170.377Z" fill="black"></path>
<path d="M508.402 143.463L507.242 152.911L508.341 167.681L518.749 151.184L527.412 137.792L508.402 143.463Z" fill="black"></path>
<path d="M524.881 140.933C524.881 140.933 507.52 147.86 503.682 145.286C500.027 142.844 492.123 134.905 489.697 124.837C486.278 110.6 489.287 93.4048 491.442 92.8028C495.115 91.7647 532.75 86.8094 532.654 106.892C532.593 118.277 536.467 125.814 533.195 123.529C533.195 123.529 528.537 144.405 527.856 157.282C527.586 162.42 524.811 167.114 520.502 169.932C514.631 173.77 512.109 175.288 510.103 172.802C505.566 167.183 507.241 152.92 507.241 152.92L524.881 140.933Z" fill="#E0955C"></path>
<path fill-rule="evenodd" clip-rule="evenodd" d="M503.855 107.777C504.142 107.8 504.357 108.051 504.334 108.338C504.059 111.85 503.001 115.598 502.133 118.533C502.061 118.774 501.991 119.01 501.923 119.239C501.573 120.416 501.273 121.427 501.084 122.218C500.971 122.692 500.905 123.06 500.889 123.322C500.881 123.449 500.886 123.53 500.894 123.577C501.177 123.836 501.599 124.05 502.121 124.217C502.661 124.389 503.27 124.497 503.859 124.559C504.447 124.621 505 124.635 505.424 124.626C505.636 124.621 505.811 124.61 505.937 124.597C506.001 124.591 506.048 124.584 506.078 124.578C506.084 124.577 506.09 124.576 506.093 124.575C506.349 124.48 506.638 124.599 506.751 124.851C506.868 125.114 506.751 125.423 506.488 125.541C506.406 125.577 506.318 125.595 506.264 125.605C506.199 125.617 506.124 125.627 506.044 125.635C505.883 125.651 505.68 125.663 505.448 125.669C504.984 125.679 504.385 125.663 503.75 125.596C503.117 125.53 502.433 125.411 501.804 125.211C501.182 125.012 500.573 124.722 500.126 124.286C499.967 124.131 499.9 123.934 499.87 123.775C499.839 123.611 499.837 123.433 499.848 123.257C499.87 122.903 499.953 122.466 500.07 121.976C500.266 121.154 500.576 120.109 500.926 118.934C500.993 118.706 501.062 118.474 501.132 118.237C502.002 115.295 503.029 111.645 503.295 108.256C503.317 107.969 503.568 107.755 503.855 107.777ZM500.9 123.602C500.901 123.603 500.901 123.604 500.901 123.604C500.901 123.604 500.9 123.603 500.9 123.602ZM500.854 123.538C500.854 123.539 500.855 123.539 500.855 123.54Z" fill="black"></path>
<path fill-rule="evenodd" clip-rule="evenodd" d="M510.426 108.906C512.373 108.297 515.28 108.299 519.408 110.313C519.817 110.513 519.987 111.006 519.787 111.415C519.588 111.824 519.094 111.994 518.686 111.794C514.84 109.918 512.373 110.024 510.918 110.479C510.484 110.615 510.021 110.373 509.885 109.939C509.75 109.504 509.992 109.042 510.426 108.906Z" fill="black"></path>
<path fill-rule="evenodd" clip-rule="evenodd" d="M495.038 109.076C494.101 109.02 492.591 109.065 490.393 109.506C489.946 109.596 489.512 109.307 489.423 108.861C489.333 108.414 489.622 107.98 490.068 107.891C492.388 107.425 494.041 107.365 495.137 107.431C495.685 107.464 496.093 107.528 496.375 107.588C496.515 107.618 496.625 107.647 496.704 107.671C496.743 107.683 496.775 107.693 496.8 107.702C496.812 107.706 496.823 107.71 496.832 107.713L496.843 107.717L496.848 107.719L496.85 107.72L496.851 107.72C496.852 107.72 496.852 107.72 496.555 108.489L496.852 107.72C497.277 107.884 497.488 108.362 497.324 108.786C497.161 109.207 496.69 109.418 496.268 109.261M496.268 109.261C496.264 109.26 496.253 109.256 496.234 109.251C496.197 109.239 496.129 109.221 496.03 109.2C495.832 109.158 495.506 109.104 495.038 109.076" fill="black"></path>
<path d="M511.59 116.297C511.643 117.09 512.34 117.701 513.152 117.64C513.396 117.623 513.614 117.553 513.815 117.422C514.26 117.152 514.539 116.646 514.495 116.096C514.452 115.459 514.007 114.953 513.44 114.796C513.291 114.752 513.117 114.726 512.951 114.744C512.131 114.796 511.529 115.494 511.59 116.297Z" fill="black"></path>
<path d="M493.599 114.186C493.485 114.979 494.035 115.712 494.82 115.834C495.623 115.957 496.356 115.398 496.478 114.613C496.6 113.81 496.042 113.078 495.248 112.955C494.454 112.833 493.712 113.383 493.599 114.186Z" fill="black"></path>
<path d="M509.477 132.393C510.044 134.408 508.308 138.936 505.141 138.054C503.335 137.557 501.398 132.628 501.398 132.628L509.477 132.393Z" fill="white"></path>
<path d="M536.449 143.262C536.449 143.262 534.591 145.723 531.878 143.123C529.164 140.523 530.36 97.8018 521.636 99.468C512.912 101.126 483.433 108.183 482.177 91.8433C481.479 82.7965 513.828 72.4062 513.828 72.4062C513.828 72.4062 517.544 75.006 521.339 75.6254C523.982 76.0529 537.016 83.5991 544.711 88.1443C547.895 90.0287 547.668 103.647 545.853 106.866L536.449 143.262Z" fill="black"></path>
<path d="M550.768 346.148C551.343 345.607 550.192 347.692 550.471 348.058C552.181 350.3 559.378 352.333 559.378 352.333C559.378 352.333 558.436 358.771 557.232 363.761C556.587 366.44 553.83 367.417 553.795 369.694C553.769 372.005 555.74 373.724 557.04 374.291C557.721 374.588 558.026 375.844 557.45 376.385C554.781 378.845 551.37 376.455 549.171 374.3C550.061 375.356 551.5 376.272 552.364 377.31C553.228 378.348 553.036 380.197 551.09 380.25C548.604 380.311 545.987 377.99 544.539 375.975C544.321 376.315 546.301 380.128 543.771 379.473C538.205 378.025 535.632 370.392 536.129 361.973C536.181 361.205 544.835 351.775 550.768 346.148Z" fill="#E0955C"></path>
<path d="M568.706 180.784C558.848 172.68 541.697 181.395 544.654 196.348C545.012 198.162 570.381 268.26 570.381 268.26L547.603 356.459L548.223 356.477C553.876 356.668 556.885 357.41 559.389 352.333L594.102 262.65C594.102 262.659 575.476 186.359 568.706 180.784Z" fill="#E0955C"></path>
<path d="M548.28 167.681L537.14 158.224C537.323 152.353 536.101 148.863 530.239 149.229C519.709 149.892 505.908 150.704 505.053 154.368C503.701 160.161 502.793 173.177 502.793 173.177L499.557 181.351L548.28 167.681Z" fill="none" stroke="#221b38" stroke-width="1"></path>
<path d="M543.438 220.513C543.438 220.513 569.183 206.477 580.288 207.768C580.288 207.768 574.452 179.101 559.046 172.706C543.639 166.311 538.457 177.251 538.457 177.251L543.438 220.513Z" fill="none" stroke="#221b38" stroke-width="1"></path>
<path d="M463.621 193.966L478.147 225.529L500.288 213.473L509.806 175.026L507.764 165.142C507.764 165.142 496.31 167.506 484.785 173.5C476.018 178.054 465.942 190.564 463.621 193.966Z" fill="none" stroke="#221b38" stroke-width="1"></path>
</svg>
