<svg width="200" height="150" viewBox="0 0 800 600" fill="none" xmlns="http://www.w3.org/2000/svg" data-reactroot="">
<path d="M739.905 378.585C746.391 378.585 751.668 383.861 751.668 390.347C751.668 396.833 746.391 402.11 739.905 402.11C733.419 402.11 728.143 396.833 728.143 390.347C728.143 383.861 733.419 378.585 739.905 378.585ZM739.905 363.055C724.832 363.055 712.613 375.274 712.613 390.347C712.613 405.421 724.832 417.64 739.905 417.64C754.979 417.64 767.198 405.421 767.198 390.347C767.198 375.274 754.979 363.055 739.905 363.055Z" fill="#2C3E50"></path>
<path opacity="0.21" d="M224.585 309.345C231.071 309.345 236.348 314.621 236.348 321.107C236.348 327.593 231.071 332.869 224.585 332.869C218.1 332.869 212.823 327.593 212.823 321.107C212.823 314.621 218.1 309.345 224.585 309.345ZM224.585 293.814C209.512 293.814 197.293 306.034 197.293 321.107C197.293 336.18 209.512 348.4 224.585 348.4C239.659 348.4 251.878 336.18 251.878 321.107C251.878 306.034 239.659 293.814 224.585 293.814Z" fill="none" stroke="#221b38" stroke-width="1"></path>
<path d="M609.52 186.295H425.901C417.55 186.295 410.781 179.525 410.781 171.175V91.7753C410.781 83.4248 417.55 76.6553 425.901 76.6553H609.52C617.871 76.6553 624.64 83.4248 624.64 91.7753V171.175C624.64 179.525 617.871 186.295 609.52 186.295Z" fill="none" stroke="#221b38" stroke-width="1"></path>
<path d="M438.756 204.457H418.019C415.997 204.457 414.357 202.818 414.357 200.795C414.357 198.773 415.997 197.134 418.019 197.134H438.756C440.778 197.134 442.418 198.773 442.418 200.795C442.418 202.818 440.778 204.457 438.756 204.457Z" fill="none" stroke="#221b38" stroke-width="1"></path>
<path d="M618.947 203.049H450.872C449.703 203.049 448.755 202.101 448.755 200.932C448.755 199.762 449.703 198.814 450.872 198.814H618.947C620.116 198.814 621.064 199.762 621.064 200.932C621.064 202.101 620.116 203.049 618.947 203.049Z" fill="none" stroke="#221b38" stroke-width="1"></path>
<path d="M542.444 202.066H452.387C451.76 202.066 451.252 201.558 451.252 200.931C451.252 200.305 451.76 199.797 452.387 199.797H542.444C543.071 199.797 543.579 200.305 543.579 200.931C543.579 201.558 543.071 202.066 542.444 202.066Z" fill="#2C3E50"></path>
<path opacity="0.2" d="M763.005 150.598C762.924 150.598 762.844 150.56 762.794 150.488C762.715 150.371 762.744 150.212 762.86 150.131C786.716 133.688 796.959 94.0149 783.539 70.037C773.079 51.3498 749.576 42.0324 650.146 42.9256C582.823 43.5344 535.4 48.1394 493.562 52.202C466.444 54.8351 440.831 57.3223 412.757 58.4929C351.299 61.052 287.996 56.6885 224.6 45.5163C224.46 45.4918 224.367 45.3593 224.392 45.2199C224.416 45.0814 224.54 44.9829 224.688 45.0124C288.048 56.1782 351.318 60.5422 412.735 57.981C440.795 56.8114 466.402 54.3248 493.512 51.6927C535.361 47.6291 582.796 43.0226 650.142 42.4138C697.765 41.9825 727.997 43.7444 748.16 48.1244C767.071 52.233 777.785 58.7113 783.984 69.7871C797.521 93.9704 787.201 133.976 763.15 150.553C763.106 150.584 763.055 150.598 763.005 150.598Z" fill="none" stroke="#221b38" stroke-width="1"></path>
<path d="M225.058 131.477H224.113V134.036H225.058V131.477Z" fill="none" stroke="#221b38" stroke-width="1"></path>
<path d="M225.058 313.563H224.113V308.576H225.058V313.563ZM225.058 303.589H224.113V298.602H225.058V303.589ZM225.058 293.615H224.113V288.628H225.058V293.615ZM225.058 283.642H224.113V278.655H225.058V283.642ZM225.058 273.668H224.113V268.681H225.058V273.668ZM225.058 263.694H224.113V258.707H225.058V263.694ZM225.058 253.72H224.113V248.733H225.058V253.72ZM225.058 243.747H224.113V238.76H225.058V243.747ZM225.058 233.773H224.113V228.786H225.058V233.773ZM225.058 223.799H224.113V218.812H225.058V223.799ZM225.058 213.826H224.113V208.838H225.058V213.826ZM225.058 203.852H224.113V198.865H225.058V203.852ZM225.058 193.878H224.113V188.891H225.058V193.878ZM225.058 183.904H224.113V178.917H225.058V183.904ZM225.058 173.931H224.113V168.944H225.058V173.931ZM225.058 163.957H224.113V158.97H225.058V163.957ZM225.058 153.983H224.113V148.996H225.058V153.983ZM225.058 144.009H224.113V139.022H225.058V144.009Z" fill="none" stroke="#221b38" stroke-width="1"></path>
<path d="M227.145 321.582H224.113V318.55H225.058V320.636H227.145V321.582Z" fill="none" stroke="#221b38" stroke-width="1"></path>
<path d="M598.718 321.581H593.558V320.636H598.718V321.581ZM588.397 321.581H583.236V320.636H588.397V321.581ZM578.075 321.581H572.915V320.636H578.075V321.581ZM567.754 321.581H562.593V320.636H567.754V321.581ZM557.432 321.581H552.272V320.636H557.432V321.581ZM547.11 321.581H541.95V320.636H547.11V321.581ZM536.789 321.581H531.629V320.636H536.789V321.581ZM526.467 321.581H521.307V320.636H526.467V321.581ZM516.146 321.581H510.986V320.636H516.146V321.581ZM505.824 321.581H500.664V320.636H505.824V321.581ZM495.503 321.581H490.343V320.636H495.503V321.581ZM485.181 321.581H480.021V320.636H485.181V321.581ZM474.86 321.581H469.7V320.636H474.86V321.581ZM464.538 321.581H459.378V320.636H464.538V321.581ZM454.217 321.581H449.057V320.636H454.217V321.581ZM443.895 321.581H438.735V320.636H443.895V321.581ZM433.574 321.581H428.414V320.636H433.574V321.581ZM423.252 321.581H418.092V320.636H423.252V321.581ZM412.931 321.581H407.771V320.636H412.931V321.581ZM402.609 321.581H397.449V320.636H402.609V321.581ZM392.288 321.581H387.128V320.636H392.288V321.581ZM381.966 321.581H376.806V320.636H381.966V321.581ZM371.645 321.581H366.485V320.636H371.645V321.581ZM361.323 321.581H356.163V320.636H361.323V321.581ZM351.002 321.581H345.842V320.636H351.002V321.581ZM340.68 321.581H335.52V320.636H340.68V321.581ZM330.359 321.581H325.199V320.636H330.359V321.581ZM320.037 321.581H314.877V320.636H320.037V321.581ZM309.716 321.581H304.556V320.636H309.716V321.581ZM299.394 321.581H294.234V320.636H299.394V321.581ZM289.073 321.581H283.912V320.636H289.073V321.581ZM278.751 321.581H273.591V320.636H278.751V321.581ZM268.43 321.581H263.269V320.636H268.43V321.581ZM258.108 321.581H252.948V320.636H258.108V321.581ZM247.787 321.581H242.626V320.636H247.787V321.581ZM237.465 321.581H232.305V320.636H237.465V321.581Z" fill="none" stroke="#221b38" stroke-width="1"></path>
<path d="M606.438 320.636H603.879V321.581H606.438V320.636Z" fill="none" stroke="#221b38" stroke-width="1"></path>
<path opacity="0.36" d="M164.708 467.507H165.182V428.007H472.074V427.534H99.8628V428.007H164.708V467.507Z" fill="#ebebeb"></path>
<path opacity="0.36" d="M539.239 467.725H140.054V468.197H255.099V517.529H255.573V468.197H539.239V467.725Z" fill="#ebebeb"></path>
<path opacity="0.36" d="M243.381 387.11H140.054V387.583H243.381V387.11Z" fill="#ebebeb"></path>
<path opacity="0.05" d="M383.993 186.295H303.445C297.696 186.295 293.035 181.634 293.035 175.885V87.0649C293.035 81.3158 297.696 76.6553 303.445 76.6553H383.993C389.742 76.6553 394.402 81.3158 394.402 87.0649V175.885C394.402 181.634 389.742 186.295 383.993 186.295Z" fill="none" stroke="#221b38" stroke-width="1"></path>
<path opacity="0.05" d="M395.409 195.735H292.028V203.338H395.409V195.735Z" fill="none" stroke="#221b38" stroke-width="1"></path>
<path d="M229.827 362.753C163.564 362.223 115.054 359.76 85.6421 355.429C50.9723 350.324 50.2591 343.523 50.0251 341.288C49.3104 334.472 62.381 329.378 78.9289 322.929C102.734 313.652 132.36 302.107 135.88 280.691C139.434 259.055 114.268 239.196 87.6229 218.171C59.3185 195.837 30.0504 172.741 33.3308 145.356C35.4061 128.034 50.3315 112.128 77.6923 98.0801L78.415 99.4866C51.5501 113.28 36.9096 128.776 34.9013 145.544C31.7258 172.049 60.6406 194.865 88.6026 216.93C115.623 238.252 141.146 258.391 137.439 280.948C133.774 303.253 103.682 314.98 79.5032 324.403C64.2134 330.361 51.0093 335.507 51.5976 341.123C52.4888 349.627 84.1356 360.008 229.839 361.171L229.827 362.753Z" fill="none" stroke="#221b38" stroke-width="1"></path>
<path opacity="0.1" d="M265.24 186.807H184.692C178.67 186.807 173.771 181.907 173.771 175.885V87.0649C173.771 81.0429 178.67 76.1436 184.692 76.1436H265.24C271.262 76.1436 276.161 81.0429 276.161 87.0649V175.885C276.161 181.907 271.262 186.807 265.24 186.807ZM184.692 77.1672C179.235 77.1672 174.794 81.6072 174.794 87.0649V175.885C174.794 181.343 179.235 185.783 184.692 185.783H265.24C270.697 185.783 275.137 181.343 275.137 175.885V87.0649C275.137 81.6072 270.697 77.1672 265.24 77.1672H184.692Z" fill="none" stroke="#221b38" stroke-width="1"></path>
<path opacity="0.1" d="M276.657 195.735H173.275V203.338H276.657V195.735Z" fill="none" stroke="#221b38" stroke-width="1"></path>
<path d="M262.636 213.251H184.331C184.07 213.251 183.858 213.04 183.858 212.779C183.858 212.517 184.07 212.306 184.331 212.306H262.636C262.897 212.306 263.108 212.517 263.108 212.779C263.108 213.04 262.897 213.251 262.636 213.251Z" fill="#1A1A1A"></path>
<path opacity="0.1" d="M732.983 186.295H652.436C646.687 186.295 642.026 181.634 642.026 175.885V87.0649C642.026 81.3158 646.687 76.6553 652.436 76.6553H732.983C738.732 76.6553 743.393 81.3158 743.393 87.0649V175.885C743.393 181.634 738.732 186.295 732.983 186.295Z" fill="none" stroke="#221b38" stroke-width="1"></path>
<path opacity="0.1" d="M744.4 195.735H641.019V203.338H744.4V195.735Z" fill="none" stroke="#221b38" stroke-width="1"></path>
<path d="M731.862 90.2406H653.557C653.297 90.2406 653.085 90.0292 653.085 89.7678C653.085 89.5064 653.297 89.2949 653.557 89.2949H731.862C732.123 89.2949 732.335 89.5064 732.335 89.7678C732.335 90.0292 732.123 90.2406 731.862 90.2406Z" fill="#1A1A1A"></path>
<path opacity="0.1" d="M661.073 565.608H50.9993C28.3561 565.608 10.0001 547.252 10.0001 524.609V524.609C10.0001 501.965 28.3561 483.609 50.9993 483.609H661.073C683.716 483.609 702.072 501.965 702.072 524.609V524.609C702.072 547.252 683.716 565.608 661.073 565.608Z" fill="none" stroke="#221b38" stroke-width="1"></path>
<path d="M127.182 531.207H113.228V514.278C113.228 513.952 113.266 513.628 113.34 513.311L118.684 490.529C119.133 488.614 120.841 487.261 122.807 487.261H127.182V531.207Z" fill="none" stroke="#221b38" stroke-width="1"></path>
<path d="M482.854 507.744H458.207L339.699 326.427H364.345L482.854 507.744Z" fill="#666666"></path>
<path d="M318.736 295.546C314.292 295.546 309.908 293.496 307.087 289.632L289.934 266.144L289.251 264.381C286.004 256.002 288.18 246.658 294.795 240.575L314.956 222.037C320.815 216.653 329.93 217.033 335.317 222.892C340.704 228.751 340.322 237.867 334.463 243.254L319.172 257.312L330.362 272.636C335.055 279.063 333.65 288.078 327.223 292.772C324.659 294.644 321.684 295.546 318.736 295.546Z" fill="#E39400"></path>
<path d="M295.863 237.895L314.07 258.215C314.07 258.215 346.59 234.97 337.524 223.45C328.458 211.93 316.895 212.919 295.863 237.895Z" fill="#2C3E50"></path>
<path d="M351.673 207.696C350.216 217.678 344.974 225.248 344.974 225.248L330.337 206.921C337.49 203.798 332.967 194.687 332.967 194.687L341.88 188.234C341.88 188.234 347.992 187.297 350.736 194.431C351.332 195.973 351.767 197.885 351.957 200.26C352.155 202.833 352.023 205.331 351.673 207.696Z" fill="#E39400"></path>
<path d="M570.211 510.829L101.418 510.331L125.438 489.098L539.998 488.6L570.211 510.829Z" fill="none" stroke="#221b38" stroke-width="1"></path>
<path d="M352.032 203.488C352.004 204.926 351.871 206.336 351.672 207.698C351.228 207.557 350.745 207.377 350.234 207.178C346.421 205.664 344.955 201.463 344.387 198.559C345.863 200.139 348.049 202.059 350.613 202.977C351.105 203.157 351.578 203.327 352.032 203.488Z" fill="#2F2933"></path>
<path d="M570.211 509.233H94.6765V548.829H570.211V509.233Z" fill="#2C3E50"></path>
<path d="M569.435 531.652H91.9535C90.3131 531.652 88.9834 530.322 88.9834 528.682C88.9834 527.042 90.3131 525.712 91.9535 525.712H569.435C571.075 525.712 572.405 527.042 572.405 528.682C572.405 530.322 571.075 531.652 569.435 531.652Z" fill="none" stroke="#221b38" stroke-width="1"></path>
<path d="M568.454 548.829H579.586V531.026C579.586 530.794 579.569 530.561 579.535 530.331L577.036 513.321C576.691 510.973 574.677 509.233 572.304 509.233H568.454V548.829Z" fill="none" stroke="#221b38" stroke-width="1"></path>
<path d="M100.066 504.883V548.828H86.1134V531.897C86.1134 531.569 86.1543 531.252 86.226 530.935L91.5694 508.148C91.9892 506.357 93.5246 505.057 95.3263 504.903C95.3365 504.893 95.3365 504.903 95.3365 504.903C95.4491 504.893 95.5617 504.883 95.6743 504.883C95.6845 504.883 95.6845 504.883 95.6948 504.883H100.066Z" fill="none" stroke="#221b38" stroke-width="1"></path>
<path d="M568.449 471.256C567.538 470.437 566.32 469.936 564.989 469.936C562.102 469.936 559.758 472.28 559.758 475.166L559.144 474.47L540.78 453.834C540.78 453.834 541.639 451.663 544.976 451.479C546.85 451.366 548.723 452.748 549.388 453.434C550.351 454.407 567.896 470.744 568.449 471.256Z" fill="none" stroke="#221b38" stroke-width="1"></path>
<path d="M564.984 469.938C562.098 469.938 559.758 472.278 559.758 475.164V474.464C473.242 474.464 446.174 501.785 446.174 501.785L428.485 481.155V488.6L446.174 509.23H559.758H570.21V475.164C570.21 472.278 567.87 469.938 564.984 469.938Z" fill="none" stroke="#221b38" stroke-width="1"></path>
<path opacity="0.05" d="M570.21 475.165V509.233H446.173L428.526 488.647L428.485 488.596V481.154L446.173 501.791C446.173 501.791 473.106 474.602 559.144 474.469L559.758 475.165C559.758 472.279 562.102 469.935 564.989 469.935C566.32 469.935 567.538 470.436 568.449 471.255C568.449 471.255 568.459 471.265 568.459 471.276C569.534 472.228 570.21 473.62 570.21 475.165Z" fill="white"></path>
<path opacity="0.05" d="M559.757 474.469V475.165L559.143 474.469H559.757Z" fill="white"></path>
<path d="M359.601 204.111C357.936 205.407 355.722 204.801 352.032 203.486C351.578 203.325 351.105 203.155 350.613 202.975C348.049 202.057 345.863 200.137 344.387 198.556C343.11 197.194 342.372 196.078 342.372 196.078C342.372 196.078 335.578 198.169 330.876 196.598C326.173 195.037 316.589 176.388 328.785 165.422C340.981 154.446 357.444 169.074 357.444 169.074C358.57 169.254 358.4 176.568 360.141 182.491C361.882 188.414 361.456 202.653 359.601 204.111Z" fill="#E39400"></path>
<path d="M337.398 155.927C348.634 154.538 362.779 164.05 360.929 165.285L354.316 170.929C354.316 170.929 349.185 180.911 344.177 183.344C342.145 184.331 339.75 177.097 338.322 178.295C336.893 179.493 335.973 180.768 335.973 182.066C335.973 187.861 346.125 193.538 342.372 196.079C338.619 198.62 335.162 198.565 334.686 200.533C334.359 201.883 334.073 201.156 329.566 197.178C321.712 190.245 318.315 179.361 321.312 169.322C323.244 162.849 327.675 157.129 337.398 155.927Z" fill="#2C3E50"></path>
<path d="M221.688 447.126L299.557 387.023C304.709 383.047 312.109 384 316.086 389.152C320.062 394.304 319.109 401.704 313.957 405.681C313.555 405.991 313.08 406.304 312.653 406.555L227.484 455.77C224.99 457.211 221.8 456.358 220.358 453.864C219.035 451.574 219.648 448.697 221.688 447.126Z" fill="#E39400"></path>
<path d="M348.253 487.227L349.954 398.962C350.061 393.42 354.641 389.013 360.183 389.12C365.726 389.227 370.132 393.806 370.025 399.349C370.018 399.715 369.989 400.087 369.944 400.442L358.633 487.995C358.264 490.85 355.651 492.865 352.796 492.496C350.141 492.153 348.213 489.842 348.253 487.227Z" fill="#E39400"></path>
<path d="M359.298 181.316C359.298 181.316 367.224 191.246 366.178 192.465C365.133 193.685 360.255 195.078 360.255 195.078L359.298 181.316Z" fill="#E39400"></path>
<path d="M340.369 188.135C338.475 188.913 335.987 187.214 334.82 184.337C334.155 182.699 334.063 181.031 334.472 179.761C334.769 178.809 335.343 178.083 336.151 177.745C337.625 177.151 339.458 178.042 340.747 179.802C341.116 180.314 341.444 180.898 341.7 181.543C342.866 184.409 342.273 187.367 340.369 188.135Z" fill="#E39400"></path>
<path d="M211.706 447.263C211.706 447.263 211.736 447.334 211.798 447.478C211.655 448.368 211.706 447.263 211.706 447.263Z" fill="none" stroke="#221b38" stroke-width="1"></path>
<path d="M249.519 477.246C249.499 477.246 249.489 477.389 249.468 477.471C249.448 477.563 249.407 477.676 249.376 477.778L249.243 478.085C249.171 478.177 249.11 478.27 249.049 478.372C248.752 478.71 248.414 479.037 247.922 479.273C247.001 479.774 245.762 480.01 244.524 480.133C241.965 480.276 239.252 480.02 236.56 479.477C235.843 479.365 235.352 479.232 234.779 479.048C234.502 478.945 234.226 478.863 233.96 478.74L233.151 478.372C232.086 477.819 231.083 477.103 230.131 476.294C228.227 474.656 226.528 472.639 224.972 470.48C221.87 466.139 219.352 461.216 217.223 456.159C216.169 453.62 215.196 451.04 214.428 448.451C214.336 448.123 214.234 447.795 214.162 447.478C214.07 447.171 213.978 446.751 213.968 446.751C213.896 446.557 213.906 446.147 214.029 445.666C214.255 444.683 214.899 443.465 215.462 442.309L215.554 442.135C215.647 441.94 215.688 441.725 215.667 441.51C219.997 440.057 226.774 440.394 226.774 440.394C226.774 440.394 226.334 442.728 224.726 444.776C223.119 446.823 224.43 453.118 226.19 454.142C227.941 455.166 231.237 449.167 231.237 449.167L237.297 451.358C237.297 451.358 234.666 458.237 236.857 463.785C238.607 468.197 246.377 474.615 249.499 477.062C249.499 477.123 249.509 477.184 249.519 477.246Z" fill="none" stroke="#221b38" stroke-width="1"></path>
<path d="M344.74 495.854C344.699 495.854 344.371 495.639 344.289 495.577C344.33 495.577 344.412 495.598 344.525 495.618C344.658 495.741 344.729 495.813 344.74 495.854Z" fill="none" stroke="#221b38" stroke-width="1"></path>
<path d="M392.36 484.737C392.278 485.321 392.145 485.904 391.961 486.467C391.716 487.255 391.378 488.003 390.948 488.699C390.62 489.19 390.252 489.702 389.832 490.244C389.822 490.265 389.801 490.285 389.781 490.306C388.44 491.852 386.679 493.08 384.775 493.991C382.707 494.984 380.179 495.506 377.651 495.813C376.371 495.967 375.081 496.079 373.781 496.151C372.481 496.212 371.171 496.253 369.861 496.284C364.599 496.325 359.276 495.967 354.045 495.25C351.435 494.882 348.824 494.452 346.378 493.776C346.061 493.704 345.764 493.602 345.467 493.51L345.242 493.438L345.129 493.408L345.098 493.397C345.057 493.397 345.006 493.387 344.945 493.356C344.73 493.274 344.382 493.029 344.054 492.66C343.368 491.944 342.713 490.807 342.058 489.753L341.956 489.589C341.843 489.405 341.69 489.262 341.495 489.159C342.549 484.717 346.439 479.148 346.439 479.148C346.439 479.148 348.19 480.765 349.07 483.212C349.95 485.669 355.98 487.89 357.781 486.948C359.573 486.007 356.246 480.028 356.246 480.028L361.323 476.057C361.323 476.057 365.745 481.932 371.621 483.028C376.504 483.939 388.47 483.151 392.401 482.854C392.401 482.864 392.401 482.864 392.401 482.874L392.412 483.048C392.453 483.488 392.432 484.174 392.36 484.737Z" fill="none" stroke="#221b38" stroke-width="1"></path>
<path d="M347.051 403.416C346.059 399.71 344.731 396.159 343.326 392.642C341.91 389.132 340.353 385.685 338.7 382.283C335.426 375.464 331.63 368.885 327.778 362.331C323.911 355.784 319.883 349.311 315.653 342.931C313.525 339.747 311.386 336.568 309.112 333.451C306.88 330.315 304.572 327.214 302.115 324.181L341.701 306.002C342.401 309.842 343.248 313.614 344.173 317.351C345.055 321.106 346.073 324.801 347.101 328.49C349.183 335.856 372.517 379.996 372.517 391.721C372.517 403.446 347.051 403.416 347.051 403.416Z" fill="#CCCCCC"></path>
<path d="M342.372 384.601C339.694 379.255 336.616 374.093 333.457 368.968C330.304 363.841 326.908 358.825 323.517 353.807C320.12 348.791 316.641 343.814 313.101 338.864C309.534 333.927 305.93 329.007 302.115 324.183C294.435 314.474 296.08 300.377 305.789 292.696C315.498 285.016 329.596 286.661 337.276 296.37C339.557 299.255 341.032 302.629 341.7 306.005C342.872 312.042 344.256 317.982 345.676 323.905C347.124 329.815 348.632 335.698 350.223 341.543C351.819 347.385 353.411 353.23 355.245 358.963C357.073 364.699 358.983 370.397 361.292 375.912C363.515 381.218 361.015 387.321 355.708 389.543C350.632 391.669 344.811 389.441 342.372 384.601Z" fill="#B3B3B3"></path>
<path d="M289.045 395.126C290.366 389.211 291.037 383.232 291.545 377.237C292.024 371.239 292.233 365.215 292.266 359.174C292.303 353.134 292.213 347.08 291.907 341.006C291.57 334.929 291.158 328.845 290.25 322.712L335.959 327.165C333.885 333.007 332.306 338.898 330.802 344.796C329.33 350.696 328.073 356.618 326.943 362.553C325.81 368.486 324.852 374.437 324.164 380.415C323.506 386.395 323.01 392.391 323.165 398.45L289.045 395.126Z" fill="#E6E6E6"></path>
<path d="M295.59 371.991C295.214 367.881 294.798 363.767 294.364 359.651C293.93 355.535 293.535 351.423 293.068 347.303C292.135 339.064 291.268 330.832 290.263 322.586C288.689 309.674 297.88 297.931 310.791 296.357C323.703 294.783 335.446 303.974 337.02 316.885C337.458 320.475 337.022 324.081 335.946 327.296C333.279 335.164 330.751 343.046 328.156 350.921C326.858 354.859 325.633 358.804 324.368 362.744C323.103 366.685 321.857 370.628 320.65 374.575C318.577 381.355 311.4 385.171 304.62 383.097C299.487 381.528 296.056 377.024 295.59 371.991Z" fill="#F2F2F2"></path>
<path d="M332.914 204.828C332.914 204.828 325.735 209.806 313.452 225.249C306.748 233.678 305.458 278.802 295.861 295.305C288.884 307.302 306.95 314.42 309.96 315.18C317.073 316.977 333.771 319.278 340.608 318.048C349.116 316.517 365.073 237.322 350.564 219.027C348.978 217.027 332.914 204.828 332.914 204.828Z" fill="none" stroke="#221b38" stroke-width="1"></path>
<path d="M389.605 269.994L357.019 289.589L356.754 289.816L355.845 290.355C353.84 291.566 351.436 292.342 348.995 292.512C346.545 292.692 344.085 292.285 341.833 291.358C339.59 290.431 337.528 288.974 335.881 287.081C334.235 285.198 333.043 282.88 332.437 280.515L332.229 279.304L323.174 233.595C321.623 225.77 326.722 218.163 334.547 216.611C342.381 215.059 346.564 221.029 348.115 228.864C348.229 229.45 351.19 257.22 352.572 270.268L380.503 258.157C383.937 255.858 388.583 256.776 390.882 260.21C393.001 263.37 392.386 267.553 389.605 269.994Z" fill="#E39400"></path>
<path d="M445.509 318.372C436.593 326.521 424.892 331.158 412.445 331.158H313.11C309.67 331.158 306.886 328.373 306.886 324.934C306.886 321.505 309.67 318.72 313.11 318.72H412.445C421.207 318.72 429.489 315.639 435.989 310.173C436.982 312.722 438.753 314.994 441.23 316.581C442.581 317.441 444.035 318.045 445.509 318.372Z" fill="none" stroke="#221b38" stroke-width="1"></path>
<path d="M380.174 259.379C380.174 259.379 386.334 247.83 386.608 245.092C386.882 242.355 386.608 239.343 388.25 239.754C389.893 240.164 390.851 248.116 390.304 249.547C390.304 249.547 398.107 241.944 400.434 243.176C402.761 244.408 400.434 247.83 400.434 247.83C400.434 247.83 403.308 249.199 403.856 251.937C404.403 254.675 403.856 255.77 403.856 255.77C403.856 255.77 407.963 259.055 407.415 260.561C406.867 262.067 401.666 268.774 391.125 269.185C380.585 269.596 380.174 259.379 380.174 259.379Z" fill="#E39400"></path>
<path d="M365.735 166.697C362.562 166.697 359.993 169.267 359.993 172.44V184.458C359.993 187.621 362.562 190.19 365.735 190.19C366.718 190.19 367.517 189.392 367.517 188.409V168.478C367.517 167.496 366.718 166.697 365.735 166.697ZM367.035 188.409C367.035 189.136 366.452 189.719 365.735 189.719C362.828 189.719 360.464 187.355 360.464 184.458V172.44C360.464 169.533 362.828 167.168 365.735 167.168C366.452 167.168 367.035 167.762 367.035 168.478V188.409Z" fill="#233FB0"></path>
<path d="M359.522 184.46V172.442C359.522 169.453 361.631 166.955 364.446 166.361C364.364 166.269 364.282 166.208 364.2 166.177H364.19C363.207 165.768 359.573 165.543 355.929 166.177C352.95 166.699 349.961 167.795 348.415 169.832H353.052C354.608 169.832 355.878 171.091 355.878 172.657V181.348C355.878 182.914 354.608 184.173 353.052 184.173H348.098C347.996 184.173 347.893 184.163 347.791 184.153C348.948 185.688 351.261 188.401 353.431 189.711C356.881 190.622 360.863 191.502 363.576 190.264C361.211 189.394 359.522 187.121 359.522 184.46Z" fill="#233FB0"></path>
<path d="M365.735 167.17C365.469 167.17 365.203 167.19 364.937 167.242C364.773 167.262 364.62 167.293 364.466 167.334C364.313 167.364 364.159 167.416 364.016 167.467C363.811 167.528 363.616 167.61 363.432 167.712C363.34 167.743 363.258 167.794 363.166 167.846C362.767 168.071 362.398 168.337 362.071 168.664C361.999 168.726 361.928 168.797 361.876 168.869C361.661 169.084 361.477 169.32 361.313 169.575C361.242 169.688 361.17 169.811 361.098 169.934C361.016 170.077 360.945 170.231 360.883 170.394C360.822 170.538 360.761 170.681 360.72 170.835C360.709 170.855 360.699 170.886 360.689 170.906C360.648 171.039 360.617 171.183 360.597 171.316C360.545 171.51 360.515 171.705 360.494 171.899C360.474 172.083 360.464 172.257 360.464 172.442V184.459C360.464 184.644 360.474 184.818 360.494 184.992C360.505 185.166 360.535 185.34 360.576 185.514C360.607 185.708 360.658 185.893 360.72 186.067C360.771 186.22 360.822 186.363 360.883 186.497C360.934 186.619 360.986 186.742 361.047 186.855C361.139 187.039 361.252 187.223 361.364 187.397C361.457 187.541 361.559 187.674 361.672 187.797C361.764 187.919 361.876 188.032 361.979 188.145C362.173 188.339 362.378 188.523 362.593 188.667C362.675 188.738 362.767 188.8 362.849 188.851C363.084 189.015 363.34 189.158 363.606 189.26C363.739 189.322 363.883 189.373 364.016 189.424C364.149 189.465 364.292 189.506 364.435 189.547C364.855 189.66 365.285 189.721 365.735 189.721C366.452 189.721 367.036 189.137 367.036 188.411V168.48C367.036 167.764 366.452 167.17 365.735 167.17Z" fill="#233FB0"></path>
<path d="M326.347 257.641L353.442 254.441C353.442 254.441 353.141 214.469 338.503 215.256C323.864 216.042 318.021 226.069 326.347 257.641Z" fill="none" stroke="#221b38" stroke-width="1"></path>
<path d="M498.063 509.234H473.413L462.02 491.801L447.555 469.67L354.905 327.914H379.554L467.599 462.617L481.746 484.277L498.063 509.234Z" fill="#2F2933"></path>
<path opacity="0.42" d="M363.222 178.764V178.764C363.222 169.721 534.909 35.0417 534.909 35.0417C555.295 19.8827 552.806 199.597 532.887 197.227C532.887 197.227 363.222 189.027 363.222 178.764Z" fill="#007199"></path>
<path opacity="0.1" d="M363.222 178.764L504.238 180.956C519.287 181.19 532.154 182.769 533.635 167.792C536.453 139.3 534.719 85.341 533.635 64.9516C533.35 59.5887 527.203 56.7087 522.895 59.9153L363.222 178.764Z" fill="#f06529"></path>
<path fill-rule="evenodd" clip-rule="evenodd" d="M448.411 160.075C446.886 180.119 440.104 194.81 431.726 194.81C424.345 194.81 418.206 183.408 415.805 166.992C414.503 183.807 407.496 196.692 399.07 196.692C389.722 196.692 382.116 180.833 382.116 161.341C382.116 141.849 389.722 125.99 399.07 125.99C406.162 125.99 412.247 135.12 414.773 148.036C415.441 125.405 422.643 108.141 431.726 108.141C438.819 108.141 444.766 118.673 447.35 134.064C448.084 104.142 455.298 81.3766 464.381 81.3766C471.33 81.3766 477.185 94.702 479.883 114.358C480.61 76.3136 486.91 39.3604 497.037 39.3604C507.82 39.3604 514.264 81.2467 514.264 121.742C514.264 162.237 507.82 204.124 497.037 204.124C489.011 204.124 483.39 180.911 481.04 152.34C479.312 178.126 472.615 196.836 464.381 196.836C456.996 196.836 450.848 181.782 448.411 160.075ZM512.696 121.742C512.696 73.4003 504.6 40.9268 497.037 40.9268C489.475 40.9268 481.379 73.4003 481.379 121.742C481.379 170.084 489.475 202.558 497.037 202.558C504.6 202.558 512.696 170.084 512.696 121.742ZM479.871 128.474C478.434 102.768 471.926 82.6872 464.381 82.6872C455.823 82.6872 448.594 108.524 448.594 139.106C448.594 169.688 455.823 195.525 464.381 195.525C472.94 195.525 480.169 169.688 480.169 139.106C480.169 138.925 480.167 138.746 480.166 138.566C480.164 138.438 480.163 138.309 480.162 138.18C480.025 134.966 479.928 131.724 479.871 128.474ZM383.14 161.341C383.14 180.269 390.286 195.668 399.07 195.668C407.854 195.668 415 180.269 415 161.341C415 160.469 414.98 159.608 414.95 158.752C414.892 157.832 414.84 156.906 414.803 155.966C413.603 139.583 407.005 127.014 399.07 127.014C390.286 127.014 383.14 142.413 383.14 161.341ZM447.347 144.01C446.017 124.291 439.521 109.276 431.726 109.276C422.972 109.276 415.851 128.206 415.851 151.476C415.851 174.745 422.972 193.676 431.726 193.676C440.48 193.676 447.601 174.745 447.601 151.476C447.601 151.146 447.597 150.818 447.593 150.49C447.591 150.381 447.59 150.272 447.589 150.162C447.477 148.15 447.397 146.097 447.347 144.01ZM364.19 166.176C363.944 164.794 362.746 163.75 361.293 163.75H358.826C358.017 163.75 357.28 164.078 356.737 164.61C356.318 165.03 356.031 165.562 355.929 166.176C359.573 165.542 363.207 165.767 364.19 166.176ZM347.791 184.153C347.893 184.163 347.995 184.174 348.098 184.174H353.052C354.608 184.174 355.878 182.915 355.878 181.348V172.658C355.878 171.091 354.608 169.832 353.052 169.832H348.098C346.921 169.832 345.979 170.774 345.979 171.951V182.055C345.979 183.129 346.757 184 347.791 184.153ZM485.088 219.719H727.789C734.48 219.719 739.905 225.144 739.905 231.835V382.83C739.905 389.522 734.48 394.946 727.789 394.946H485.088C478.397 394.946 472.972 389.522 472.972 382.83V231.835C472.972 225.144 478.397 219.719 485.088 219.719ZM382.912 290.736C380.046 292.629 379.237 296.478 381.131 299.355L393.855 318.722H408.739L391.521 292.527C389.638 289.65 385.789 288.852 382.912 290.736ZM249.499 477.063C249.489 476.429 249.96 475.866 250.605 475.774C251.311 475.671 251.966 476.152 252.079 476.859C252.386 479.1 251.137 480.861 249.684 481.926C248.21 482.99 246.603 483.441 245.047 483.789C244.793 483.823 244.536 483.864 244.28 483.906C243.761 483.991 243.24 484.075 242.733 484.096C242.513 484.108 242.292 484.123 242.072 484.138H242.071L242.07 484.138C241.521 484.175 240.973 484.213 240.44 484.198L238.178 484.157L235.946 483.994C235.25 483.963 234.339 483.819 233.53 483.635L233.329 483.584C232.991 483.498 232.645 483.41 232.312 483.308L231.135 482.888C229.6 482.253 228.177 481.434 226.877 480.513C225.556 479.602 224.379 478.548 223.294 477.442C222.188 476.347 221.185 475.18 220.274 473.962C216.609 469.099 213.989 463.725 212.013 458.156C211.031 455.352 210.253 452.496 209.72 449.537L209.692 449.388C209.63 449.063 209.57 448.749 209.526 448.411C209.514 448.318 209.5 448.231 209.486 448.142C209.443 447.864 209.398 447.573 209.383 447.029C209.362 445.801 209.741 444.788 210.191 443.979C211.143 442.351 212.331 441.297 213.805 440.488C214.419 440.15 215.187 440.365 215.524 440.98C215.617 441.154 215.668 441.328 215.668 441.512C215.688 441.727 215.647 441.942 215.555 442.136L215.463 442.31C215.381 442.479 215.297 442.648 215.214 442.818C214.721 443.817 214.222 444.828 214.03 445.668C213.907 446.149 213.897 446.559 213.968 446.753C213.973 446.753 213.994 446.837 214.024 446.958C214.061 447.107 214.112 447.31 214.163 447.48C214.215 447.711 214.284 447.948 214.353 448.186L214.353 448.187L214.353 448.188C214.379 448.276 214.404 448.364 214.429 448.452C215.197 451.042 216.169 453.622 217.224 456.16C219.353 461.217 221.871 466.141 224.973 470.481C226.529 472.641 228.228 474.658 230.132 476.296C231.084 477.104 232.087 477.821 233.152 478.374L233.96 478.742C234.143 478.826 234.33 478.891 234.518 478.957C234.563 478.972 234.608 478.988 234.653 479.004C234.695 479.018 234.737 479.034 234.779 479.049C235.353 479.234 235.844 479.367 236.56 479.479C239.253 480.022 241.965 480.278 244.524 480.134C245.763 480.012 247.002 479.776 247.923 479.274C248.414 479.039 248.752 478.711 249.049 478.374C249.11 478.271 249.172 478.179 249.244 478.087L249.377 477.78C249.387 477.746 249.398 477.711 249.409 477.676C249.421 477.64 249.433 477.604 249.443 477.569C249.448 477.551 249.453 477.533 249.458 477.516C249.462 477.501 249.466 477.487 249.469 477.473C249.476 477.442 249.483 477.402 249.489 477.365C249.498 477.303 249.507 477.248 249.52 477.248C249.51 477.186 249.499 477.125 249.499 477.063ZM393.589 481.495C392.883 481.556 392.361 482.16 392.401 482.856V482.877L392.412 483.051C392.453 483.491 392.432 484.177 392.361 484.74C392.279 485.323 392.146 485.907 391.961 486.47C391.716 487.258 391.378 488.005 390.948 488.702C390.774 489.009 390.579 489.306 390.364 489.592C390.201 489.817 390.027 490.032 389.832 490.247C389.822 490.268 389.801 490.288 389.781 490.309C388.44 491.854 386.679 493.083 384.775 493.994C382.708 494.987 380.179 495.509 377.651 495.816C376.371 495.969 375.081 496.082 373.781 496.154C372.481 496.215 371.171 496.256 369.861 496.287C364.599 496.328 359.276 495.969 354.045 495.253C351.435 494.884 348.825 494.454 346.378 493.779C346.13 493.723 345.894 493.648 345.661 493.574L345.66 493.574L345.66 493.573C345.595 493.553 345.531 493.533 345.467 493.513L345.242 493.441L345.129 493.41L345.098 493.4C345.058 493.4 345.006 493.39 344.945 493.359C344.73 493.277 344.382 493.032 344.054 492.663C343.47 492.053 342.909 491.139 342.35 490.229L342.35 490.229C342.288 490.128 342.225 490.026 342.163 489.925C342.128 489.868 342.093 489.812 342.058 489.756L341.956 489.592C341.843 489.408 341.69 489.265 341.495 489.162C341.342 489.07 341.157 489.009 340.963 488.998C340.267 488.957 339.673 489.49 339.632 490.186C339.54 491.813 339.786 493.308 340.554 494.905C340.963 495.693 341.526 496.512 342.458 497.177C342.683 497.341 342.939 497.495 343.205 497.628L343.409 497.73L343.532 497.781L343.788 497.894C344.136 498.047 344.474 498.191 344.822 498.324C347.555 499.409 350.309 500.156 353.093 500.729C358.662 501.855 364.302 502.316 369.994 502.142C372.839 502.06 375.696 501.743 378.552 501.149C381.397 500.514 384.274 499.706 387.027 498.068C389.597 496.471 391.961 494.362 393.528 491.598C394.295 490.227 394.848 488.732 395.104 487.187C395.227 486.419 395.278 485.641 395.258 484.863C395.227 484.054 395.165 483.358 394.93 482.457C394.787 481.864 394.224 481.444 393.589 481.495Z" fill="#f06529"></path>
<path d="M224.585 324.006C226.185 324.006 227.483 322.709 227.483 321.108C227.483 319.508 226.185 318.21 224.585 318.21C222.984 318.21 221.687 319.508 221.687 321.108C221.687 322.709 222.984 324.006 224.585 324.006Z" fill="none" stroke="#221b38" stroke-width="1"></path>
<path d="M224.585 135.142C226.185 135.142 227.483 133.845 227.483 132.244C227.483 130.643 226.185 129.346 224.585 129.346C222.984 129.346 221.687 130.643 221.687 132.244C221.687 133.845 222.984 135.142 224.585 135.142Z" fill="none" stroke="#221b38" stroke-width="1"></path>
<path d="M761.316 565.354H592.688V565.866H761.316V565.354Z" fill="none" stroke="#221b38" stroke-width="1"></path>
<path opacity="0.1" d="M720.092 253.01H492.785C489.168 253.01 486.236 250.078 486.236 246.461C486.236 242.844 489.168 239.912 492.785 239.912H720.092C723.709 239.912 726.641 242.844 726.641 246.461C726.641 250.078 723.709 253.01 720.092 253.01Z" fill="none" stroke="#221b38" stroke-width="1"></path>
<path d="M713.001 334.125H683.768C681.681 334.125 679.99 332.433 679.99 330.346V298.11C679.99 296.024 681.681 294.332 683.768 294.332H713.001C715.088 294.332 716.78 296.024 716.78 298.11V330.346C716.78 332.433 715.088 334.125 713.001 334.125Z" fill="none" stroke="#221b38" stroke-width="1"></path>
<path d="M527.784 334.125H501.199C498.381 334.125 496.097 331.84 496.097 329.022V299.435C496.097 296.617 498.381 294.332 501.199 294.332H527.784C530.602 294.332 532.887 296.617 532.887 299.435V329.022C532.887 331.84 530.602 334.125 527.784 334.125Z" fill="none" stroke="#221b38" stroke-width="1"></path>
<path opacity="0.1" d="M716.779 280.842H679.99V286.64H716.779V280.842Z" fill="none" stroke="#221b38" stroke-width="1"></path>
<path opacity="0.1" d="M532.887 280.842H496.097V286.64H532.887V280.842Z" fill="none" stroke="#221b38" stroke-width="1"></path>
<path opacity="0.1" d="M630.071 384.472H582.805V390.27H630.071V384.472Z" fill="none" stroke="#221b38" stroke-width="1"></path>
<path opacity="0.1" d="M548.591 342.262C545.057 342.262 542.193 339.397 542.193 335.864V306.353C542.193 302.819 545.057 299.955 548.591 299.955V342.262Z" fill="none" stroke="#221b38" stroke-width="1"></path>
<path opacity="0.1" d="M664.286 342.262C667.819 342.262 670.683 339.397 670.683 335.864V306.353C670.683 302.819 667.819 299.955 664.286 299.955V342.262Z" fill="none" stroke="#221b38" stroke-width="1"></path>
<path d="M573.413 437.202C575.389 437.202 575.393 434.131 573.413 434.131C571.437 434.131 571.434 437.202 573.413 437.202Z" fill="white"></path>
<path fill-rule="evenodd" clip-rule="evenodd" d="M224.966 96.8008C205.816 96.8008 190.292 112.325 190.292 131.475C190.292 150.626 205.816 166.15 224.966 166.15C244.117 166.15 259.641 150.626 259.641 131.475C259.641 112.325 244.117 96.8008 224.966 96.8008ZM224.966 154.89C212.056 154.89 201.552 144.386 201.552 131.475C201.552 118.565 212.056 108.061 224.966 108.061C237.877 108.061 248.381 118.565 248.381 131.475C248.381 144.386 237.877 154.89 224.966 154.89ZM364.446 166.358C364.855 166.276 365.295 166.225 365.736 166.225C366.974 166.225 367.988 167.239 367.988 168.477V188.408C367.988 189.657 366.974 190.66 365.736 190.66C364.978 190.66 364.241 190.527 363.576 190.261C361.211 189.391 359.522 187.118 359.522 184.457V172.439C359.522 169.45 361.631 166.952 364.446 166.358ZM365.736 189.718C366.452 189.718 367.036 189.135 367.036 188.408V168.477C367.036 167.761 366.452 167.167 365.736 167.167C365.469 167.167 365.203 167.187 364.937 167.239C362.409 167.607 360.464 169.798 360.464 172.439V184.457C360.464 186.903 362.153 188.971 364.435 189.544C364.855 189.657 365.285 189.718 365.736 189.718ZM317.716 176.014C317.726 174.018 319.354 172.411 321.35 172.411H321.37L345.979 172.585V179.843L340.748 179.802C339.458 178.041 337.626 177.151 336.152 177.744C335.343 178.082 334.77 178.809 334.473 179.761L321.319 179.669C319.313 179.659 317.706 178.021 317.716 176.014ZM446.174 501.789L428.485 481.152C428.485 481.152 433.88 475.706 447.556 469.667L462.02 491.798C450.719 497.203 446.174 501.789 446.174 501.789ZM542.07 453.832C509.303 453.832 485.073 457.753 467.599 462.615L481.746 484.276C499.435 478.942 524.719 474.469 559.759 474.469L542.07 453.832ZM125.86 486.901H147.458C148.672 486.901 149.656 487.885 149.656 489.099C149.656 490.313 148.672 491.297 147.458 491.297H125.86C124.646 491.297 123.662 490.313 123.662 489.099C123.662 487.885 124.646 486.901 125.86 486.901ZM120.877 504.883H100.067V510.83H120.877C122.413 510.83 123.662 509.581 123.662 508.046V507.667C123.662 506.132 122.413 504.883 120.877 504.883ZM445.509 318.373C444.035 318.046 442.581 317.442 441.23 316.582C438.753 314.995 436.982 312.722 435.989 310.174C434.453 306.284 434.75 301.739 437.187 297.951L484.295 224.678C488.318 218.413 496.661 216.601 502.915 220.624C509.18 224.658 510.992 232.99 506.969 239.255L459.85 312.528C457.281 316.541 452.941 318.721 448.508 318.721C447.505 318.721 446.502 318.609 445.509 318.373Z" fill="#ebebeb"></path>
<path opacity="0.1" d="M646.713 374.815H566.165C560.416 374.815 555.756 370.155 555.756 364.406V275.585C555.756 269.836 560.416 265.176 566.165 265.176H646.713C652.462 265.176 657.122 269.836 657.122 275.585V364.406C657.122 370.155 652.462 374.815 646.713 374.815Z" fill="none" stroke="#221b38" stroke-width="1"></path>
<path opacity="0.1" d="M606.439 354.671C625.589 354.671 641.113 339.146 641.113 319.996C641.113 300.846 625.589 285.321 606.439 285.321C587.289 285.321 571.764 300.846 571.764 319.996C571.764 339.146 587.289 354.671 606.439 354.671Z" fill="none" stroke="#221b38" stroke-width="1"></path>
<path d="M608.157 358.721C602.676 358.721 597.399 357.548 592.477 355.233L592.899 354.334C597.689 356.587 602.823 357.729 608.157 357.729C627.95 357.729 644.053 341.625 644.053 321.832C644.053 309.889 638.137 298.762 628.226 292.066L628.782 291.243C638.966 298.123 645.046 309.558 645.046 321.832C645.046 342.173 628.498 358.721 608.157 358.721Z" fill="none" stroke="#221b38" stroke-width="1"></path>
<path d="M739.905 309.149C739.644 309.149 739.432 308.938 739.432 308.676V230.372C739.432 230.111 739.644 229.899 739.905 229.899C740.166 229.899 740.378 230.111 740.378 230.372V308.676C740.378 308.938 740.166 309.149 739.905 309.149Z" fill="#1A1A1A"></path>
<path d="M606.439 324.554C608.039 324.554 609.337 323.257 609.337 321.656C609.337 320.055 608.039 318.758 606.439 318.758C604.838 318.758 603.54 320.055 603.54 321.656C603.54 323.257 604.838 324.554 606.439 324.554Z" fill="none" stroke="#221b38" stroke-width="1"></path>
<path d="M200.254 537.057C219.572 537.057 235.232 533.463 235.232 529.029C235.232 524.595 219.572 521.001 200.254 521.001C180.936 521.001 165.276 524.595 165.276 529.029C165.276 533.463 180.936 537.057 200.254 537.057Z" fill="#f06529"></path>
<path d="M450.887 537.057C470.205 537.057 485.865 533.463 485.865 529.029C485.865 524.595 470.205 521.001 450.887 521.001C431.569 521.001 415.909 524.595 415.909 529.029C415.909 533.463 431.569 537.057 450.887 537.057Z" fill="#f06529"></path>
</svg>
