<svg width="200" height="150" viewBox="0 0 800 600" fill="none" xmlns="http://www.w3.org/2000/svg" data-reactroot="">
<g opacity="0.2">
<path opacity="0.2" d="M203.866 258.08C204.344 264.889 155.581 263.829 107.962 289.629C52.4424 319.691 40.2905 363.6 24.6045 357.903C6.66291 351.386 4.08485 287.3 30.7168 238.725C31.4549 237.373 32.2137 236.043 32.9933 234.744C36.9641 228.018 41.2988 222.01 45.7791 216.615C58.2114 201.677 71.8705 191.552 82.6708 184.557C82.9619 184.359 83.253 184.172 83.5441 183.995C85.1345 182.966 86.6522 182.02 88.097 181.137C89.3133 180.388 90.467 179.681 91.5586 179.027C95.4255 176.688 99.3652 174.494 103.357 172.426C103.669 172.259 103.991 172.093 104.313 171.937C106.413 170.856 108.534 169.817 110.654 168.829C112.775 167.831 114.906 166.864 117.026 165.939C117.733 165.627 118.44 165.326 119.157 165.025C119.864 164.723 120.571 164.422 121.278 164.131C122.702 163.548 124.116 162.987 125.529 162.436C126.153 162.187 126.777 161.948 127.4 161.709C129.053 161.085 130.706 160.482 132.348 159.9C133.242 159.578 134.126 159.276 135.01 158.975C136.059 158.621 137.099 158.268 138.138 157.935C170.841 147.353 199.542 146.22 203.866 155.212C210.009 167.987 164.573 196.397 148.45 219.972C148.253 220.263 148.055 220.565 147.858 220.856C143.596 227.342 141.662 233.444 143.772 238.725C147.577 248.257 162.993 251.261 177.255 252.852C177.785 252.914 178.305 252.966 178.824 253.028C191.922 254.411 203.627 254.743 203.866 258.08Z" fill="none" stroke="#221b38" stroke-width="1"></path>
</g>
<g opacity="0.7">
<path opacity="0.1" d="M57.7873 222.217L48.5567 241.999L32.9954 234.743C36.9662 228.018 41.3008 222.009 45.7811 216.614L57.7873 222.217Z" fill="#333333"></path>
</g>
<g opacity="0.84">
<path opacity="0.84" d="M742.77 514.15H69.7915C49.0132 514.15 31.7745 498.168 30.0872 477.458C25.6518 423.017 31.4843 373.087 62.4942 351.989C100.367 326.221 143.362 365.521 188.273 339.515C253.861 301.535 233.071 176.657 271.433 170.077C298.827 165.378 316.407 227.858 348.356 225.17C396.15 221.15 405.697 77.2203 445.029 75.4825C482.145 73.8427 498.916 200.895 558.334 206.459C592.856 209.692 611.181 169.052 634.218 178.393C670.798 193.225 642.044 302.769 687.232 324.962C710.149 336.217 730.789 314.547 745.444 328.08C768.911 349.751 726.36 414.893 755.839 445.544C765.405 455.49 776.319 455.319 780.787 467.373C782.603 472.272 782.713 477.463 781.709 482.664C778.15 501.105 761.55 514.15 742.77 514.15Z" fill="none" stroke="#221b38" stroke-width="1"></path>
</g>
<path d="M697.626 304.69C697.55 304.69 697.471 304.673 697.398 304.637C673.396 292.85 670.103 257.5 666.919 223.314C664.125 193.328 661.486 165.004 644.417 158.083C644.151 157.975 644.023 157.672 644.131 157.406C644.238 157.14 644.543 157.013 644.808 157.12C662.463 164.279 665.13 192.908 667.954 223.218C671.112 257.119 674.378 292.174 697.856 303.704C698.113 303.831 698.22 304.142 698.093 304.4C698.003 304.584 697.818 304.69 697.626 304.69Z" fill="#333333"></path>
<path d="M572.632 186.372C571.337 186.372 570.023 186.312 568.681 186.186C568.395 186.159 568.185 185.906 568.212 185.62C568.238 185.335 568.493 185.124 568.778 185.151C586.21 186.786 599.593 177.011 611.406 168.389C623.133 159.83 633.261 152.44 644.808 157.12C645.074 157.229 645.202 157.532 645.094 157.798C644.987 158.063 644.683 158.19 644.417 158.084C633.408 153.62 623.496 160.853 612.019 169.229C600.957 177.302 588.527 186.372 572.632 186.372Z" fill="#333333"></path>
<path d="M348.358 225.689C348.091 225.689 347.864 225.484 347.841 225.212C347.817 224.926 348.029 224.675 348.315 224.651C372.956 222.578 387.297 182.806 401.167 144.343C413.876 109.098 425.88 75.8071 445.009 74.962C445.272 74.9356 445.539 75.1711 445.551 75.4584C445.564 75.7452 445.342 75.9878 445.055 76.0005C426.622 76.8151 414.732 109.787 402.145 144.696C388.164 183.467 373.707 223.558 348.403 225.687C348.388 225.688 348.373 225.689 348.358 225.689Z" fill="#333333"></path>
<path d="M346.339 225.774C330.736 225.774 318.67 210.75 306.983 196.201C295.477 181.876 284.617 168.34 271.521 170.588C271.239 170.637 270.969 170.446 270.921 170.163C270.872 169.881 271.062 169.612 271.345 169.563C285.033 167.217 296.09 180.978 307.794 195.55C319.819 210.522 332.245 226.003 348.312 224.651C348.601 224.62 348.849 224.839 348.873 225.125C348.898 225.411 348.685 225.663 348.399 225.687C347.706 225.745 347.018 225.774 346.339 225.774Z" fill="#333333"></path>
<g opacity="0.31">
<g opacity="0.31">
<path opacity="0.31" d="M59.6725 445.14C51.1545 445.736 45.4731 447.73 46.4369 450.041L83.4109 473.413C84.5402 476.121 94.3601 478.235 105.339 478.137L390.073 475.602C391.686 475.588 393.233 475.527 394.697 475.425C403.212 474.829 408.887 472.834 407.926 470.526L370.949 447.151C369.823 444.445 359.999 442.329 349.021 442.427L64.2863 444.962C62.6773 444.977 61.1338 445.038 59.6725 445.14Z" fill="#333333"></path>
</g>
</g>
<path d="M182.075 404.609H151.032L151.907 407.642H179.113L187.199 435.652H191.036L182.075 404.609ZM290.028 404.609H258.985L259.861 407.642H287.066L295.152 435.652H298.989L290.028 404.609ZM344.009 404.609H312.966L313.842 407.642H341.047L349.133 435.652H352.97L344.009 404.609ZM154.527 309.18H123.484L124.36 312.213H151.565L159.651 340.223H163.489L154.527 309.18ZM208.508 309.18H177.465L178.341 312.213H205.537L213.623 340.223H217.47L208.508 309.18ZM316.461 309.18H285.418L286.294 312.213H313.499L321.585 340.223H325.423L316.461 309.18ZM209.59 440.671L200.056 407.642H233.085L242.619 440.671H209.59ZM150.914 407.642L149.752 403.616H182.782L192.316 436.645H187.485L188.647 440.671H155.618L146.083 407.642H150.914ZM258.868 407.642L257.705 403.616H290.734L300.269 436.645H295.438L296.6 440.671H263.571L254.037 407.642H258.868ZM312.849 407.642L311.686 403.616H344.715L354.25 436.645H349.419L350.581 440.671H317.543L308.009 407.642H312.849ZM141.845 392.961L132.311 359.932H165.34L174.875 392.961H141.845ZM195.818 392.961L186.283 359.932H219.312L228.847 392.961H195.818ZM249.799 392.961L240.264 359.932H273.293L282.828 392.961H249.799ZM303.771 392.961L294.236 359.932H327.274L336.809 392.961H303.771ZM236.023 345.242L226.489 312.213H259.518L269.053 345.242H236.023ZM123.366 312.213L122.204 308.187H155.234L164.768 341.217H159.937L161.1 345.242H128.07L118.536 312.213H123.366ZM177.347 312.213L176.185 308.187H209.215L218.749 341.217H213.909L215.072 345.242H182.042L172.508 312.213H177.347ZM285.301 312.213L284.139 308.187H317.168L326.702 341.217H321.871L323.034 345.242H289.995L280.461 312.213H285.301ZM327.656 287.951H94.3552C85.1855 287.951 79.8845 295.403 82.5317 304.573L127.168 459.198C129.813 468.359 139.419 475.82 148.588 475.82H381.855C388.806 473.987 392.409 467.244 390.086 459.198L345.45 304.573C343.131 296.54 335.652 289.798 327.656 287.951ZM90.0668 287.45H78.3044C68.8482 287.45 63.4035 295.117 66.1332 304.573L110.77 459.198C113.499 468.654 123.368 476.312 132.824 476.312H144.55C136.304 474.431 128.564 467.473 126.175 459.198L81.5386 304.573C79.1457 296.284 82.8842 289.318 90.0668 287.45Z" fill="#f06529"></path>
<path d="M123.367 312.212H118.536L128.071 345.241H161.1L159.938 341.215H131.739L123.367 312.212ZM151.565 312.212H124.36L132.446 340.222H159.651L151.565 312.212Z" fill="none" stroke="#221b38" stroke-width="1"></path>
<path d="M124.36 312.213L123.484 309.18H154.528L163.489 340.224H159.651H132.446L124.36 312.213ZM155.234 308.188H122.205L123.367 312.213L131.739 341.217H159.938H164.769L155.234 308.188Z" fill="#333333"></path>
<path d="M177.347 312.212H172.507L182.042 345.241H215.071L213.909 341.215H185.72L177.347 312.212ZM205.536 312.212H178.34L186.426 340.222H213.622L205.536 312.212Z" fill="none" stroke="#221b38" stroke-width="1"></path>
<path d="M178.341 312.213L177.465 309.18H208.508L217.47 340.224H213.623H186.427L178.341 312.213ZM209.215 308.188H176.186L177.348 312.213L185.72 341.217H213.909H218.749L209.215 308.188Z" fill="#333333"></path>
<path d="M259.517 312.212H226.488L236.023 345.241H269.052L259.517 312.212Z" fill="none" stroke="#221b38" stroke-width="1"></path>
<path d="M285.301 312.212H280.461L289.995 345.241H323.034L321.871 341.215H293.673L285.301 312.212ZM313.499 312.212H286.294L294.379 340.222H321.585L313.499 312.212Z" fill="none" stroke="#221b38" stroke-width="1"></path>
<path d="M286.294 312.213L285.419 309.18H316.462L325.423 340.224H321.585H294.38L286.294 312.213ZM317.168 308.188H284.139L285.301 312.213L293.674 341.217H321.872H326.703L317.168 308.188Z" fill="#333333"></path>
<path d="M165.34 359.932H132.311L141.845 392.961H174.875L165.34 359.932Z" fill="none" stroke="#221b38" stroke-width="1"></path>
<path d="M219.311 359.932H186.282L195.816 392.961H228.846L219.311 359.932Z" fill="none" stroke="#221b38" stroke-width="1"></path>
<path d="M273.292 359.932H240.262L249.797 392.961H282.826L273.292 359.932Z" fill="none" stroke="#221b38" stroke-width="1"></path>
<path d="M327.273 359.932H294.235L303.77 392.961H336.808L327.273 359.932Z" fill="none" stroke="#221b38" stroke-width="1"></path>
<path d="M150.915 407.642H146.084L155.618 440.671H188.647L187.485 436.645H159.287L150.915 407.642ZM179.113 407.642H151.908L159.993 435.652H187.199L179.113 407.642Z" fill="none" stroke="#221b38" stroke-width="1"></path>
<path d="M151.907 407.642L151.032 404.609H182.075L191.036 435.652H187.199H159.993L151.907 407.642ZM182.781 403.616H149.752L150.914 407.642L159.287 436.645H187.485H192.316L182.781 403.616Z" fill="#333333"></path>
<path d="M233.086 407.642H200.057L209.591 440.671H242.62L233.086 407.642Z" fill="none" stroke="#221b38" stroke-width="1"></path>
<path d="M258.868 407.642H254.037L263.572 440.671H296.601L295.439 436.645H267.241L258.868 407.642ZM287.066 407.642H259.861L267.947 435.652H295.152L287.066 407.642Z" fill="none" stroke="#221b38" stroke-width="1"></path>
<path d="M259.861 407.642L258.986 404.609H290.029L298.99 435.652H295.152H267.947L259.861 407.642ZM290.735 403.616H257.706L258.868 407.642L267.241 436.645H295.439H300.27L290.735 403.616Z" fill="#333333"></path>
<path d="M312.85 407.642H308.01L317.545 440.671H350.583L349.421 436.645H321.222L312.85 407.642ZM341.048 407.642H313.843L321.929 435.652H349.134L341.048 407.642Z" fill="none" stroke="#221b38" stroke-width="1"></path>
<path d="M313.842 407.642L312.966 404.609H344.009L352.971 435.652H349.133H321.928L313.842 407.642ZM344.716 403.616H311.687L312.849 407.642L321.221 436.645H349.42H354.251L344.716 403.616Z" fill="#333333"></path>
<path d="M327.656 287.951H339.435C348.605 287.951 358.208 295.403 360.855 304.573L405.492 459.198C408.136 468.359 402.838 475.82 393.668 475.82H381.855H148.589C139.419 475.82 129.813 468.359 127.168 459.198L82.532 304.573C79.8848 295.403 85.1858 287.951 94.3555 287.951H327.656ZM339.148 286.958H94.0687C92.6422 286.958 91.3035 287.129 90.0671 287.45C82.8845 289.317 79.146 296.284 81.5389 304.573L126.175 459.198C128.564 467.473 136.304 474.431 144.55 476.312C145.985 476.64 147.435 476.813 148.875 476.813H393.955C403.67 476.813 409.289 468.914 406.485 459.198L361.848 304.573C359.044 294.857 348.864 286.958 339.148 286.958Z" fill="#333333"></path>
<path d="M121.705 297.503C121.499 297.503 121.299 297.391 121.196 297.196C121.049 296.916 121.157 296.568 121.437 296.421C126.165 293.933 129.102 289.07 129.102 283.732C129.102 275.831 122.675 269.403 114.774 269.403C106.873 269.403 100.445 275.831 100.445 283.732C100.445 284.049 100.188 284.306 99.8712 284.306C99.5545 284.306 99.2971 284.049 99.2971 283.732C99.2971 275.198 106.24 268.255 114.774 268.255C123.308 268.255 130.251 275.198 130.251 283.732C130.251 289.498 127.078 294.749 121.972 297.437C121.886 297.482 121.795 297.503 121.705 297.503Z" fill="#333333"></path>
<path d="M160.311 297.502C160.105 297.502 159.905 297.39 159.802 297.195C159.655 296.915 159.763 296.568 160.043 296.42C164.771 293.932 167.709 289.069 167.709 283.731C167.709 275.83 161.281 269.402 153.38 269.402C145.479 269.402 139.052 275.83 139.052 283.731C139.052 284.048 138.794 284.305 138.478 284.305C138.161 284.305 137.903 284.048 137.903 283.731C137.903 275.197 144.846 268.254 153.38 268.254C161.914 268.254 168.857 275.197 168.857 283.731C168.857 289.497 165.685 294.748 160.578 297.436C160.493 297.481 160.401 297.502 160.311 297.502Z" fill="#333333"></path>
<path d="M198.917 297.502C198.711 297.502 198.511 297.39 198.408 297.195C198.261 296.915 198.369 296.568 198.649 296.42C203.378 293.932 206.315 289.07 206.315 283.731C206.315 275.83 199.887 269.402 191.987 269.402C184.085 269.402 177.657 275.83 177.657 283.731C177.657 284.048 177.4 284.305 177.083 284.305C176.767 284.305 176.509 284.048 176.509 283.731C176.509 275.197 183.452 268.254 191.987 268.254C200.52 268.254 207.463 275.197 207.463 283.731C207.463 289.497 204.29 294.748 199.184 297.436C199.099 297.481 199.007 297.502 198.917 297.502Z" fill="#333333"></path>
<path d="M237.525 297.502C237.318 297.502 237.119 297.39 237.016 297.195C236.869 296.915 236.976 296.568 237.257 296.42C241.986 293.932 244.923 289.07 244.923 283.731C244.923 275.83 238.495 269.402 230.594 269.402C222.693 269.402 216.265 275.83 216.265 283.731C216.265 284.048 216.008 284.305 215.691 284.305C215.374 284.305 215.117 284.048 215.117 283.731C215.117 275.197 222.06 268.254 230.594 268.254C239.128 268.254 246.071 275.197 246.071 283.731C246.071 289.497 242.898 294.748 237.791 297.436C237.706 297.481 237.614 297.502 237.525 297.502Z" fill="#333333"></path>
<path d="M276.236 297.502C276.03 297.502 275.831 297.39 275.728 297.195C275.581 296.915 275.688 296.568 275.968 296.42C280.697 293.932 283.634 289.069 283.634 283.731C283.634 275.83 277.206 269.402 269.305 269.402C261.405 269.402 254.977 275.83 254.977 283.731C254.977 284.048 254.72 284.305 254.403 284.305C254.086 284.305 253.829 284.048 253.829 283.731C253.829 275.197 260.772 268.254 269.305 268.254C277.839 268.254 284.782 275.197 284.782 283.731C284.782 289.497 281.61 294.748 276.503 297.436C276.418 297.481 276.326 297.502 276.236 297.502Z" fill="#333333"></path>
<path d="M314.845 297.502C314.639 297.502 314.439 297.39 314.336 297.195C314.189 296.915 314.296 296.568 314.577 296.42C319.305 293.932 322.242 289.069 322.242 283.731C322.242 275.83 315.815 269.402 307.914 269.402C300.012 269.402 293.585 275.83 293.585 283.731C293.585 284.048 293.327 284.305 293.011 284.305C292.694 284.305 292.437 284.048 292.437 283.731C292.437 275.197 299.38 268.254 307.914 268.254C316.447 268.254 323.39 275.197 323.39 283.731C323.39 289.497 320.218 294.748 315.112 297.436C315.026 297.481 314.934 297.502 314.845 297.502Z" fill="#333333"></path>
<path d="M781.308 495.438H356.193C355.619 495.438 355.154 494.973 355.154 494.399C355.154 493.825 355.619 493.359 356.193 493.359H781.308C781.882 493.359 782.347 493.825 782.347 494.399C782.347 494.973 781.882 495.438 781.308 495.438Z" fill="#ebebeb"></path>
<path d="M303.919 495.438H11.0391C10.4651 495.438 9.99963 494.973 9.99963 494.399C9.99963 493.825 10.4651 493.359 11.0391 493.359H303.919C304.494 493.359 304.959 493.825 304.959 494.399C304.959 494.973 304.494 495.438 303.919 495.438Z" fill="#ebebeb"></path>
<path d="M782.346 514.929H656.501C656.071 514.929 655.722 514.58 655.722 514.15C655.722 513.719 656.071 513.37 656.501 513.37H782.346C782.777 513.37 783.126 513.719 783.126 514.15C783.126 514.58 782.777 514.929 782.346 514.929Z" fill="#333333"></path>
<path d="M624.727 514.929H17.2762C16.8458 514.929 16.4966 514.58 16.4966 514.15C16.4966 513.719 16.8458 513.37 17.2762 513.37H624.727C625.158 513.37 625.507 513.719 625.507 514.15C625.507 514.58 625.158 514.929 624.727 514.929Z" fill="#333333"></path>
<g opacity="0.59">
<path opacity="0.59" d="M669.564 116.022H197.632C188.159 116.022 180.48 108.343 180.48 98.8705V98.8704C180.48 89.3978 188.159 81.7188 197.632 81.7188H669.564C679.036 81.7188 686.715 89.3978 686.715 98.8704V98.8705C686.715 108.343 679.036 116.022 669.564 116.022Z" fill="#ebebeb"></path>
</g>
<path d="M744.926 125.377C759.279 125.377 770.914 113.742 770.914 99.3898C770.914 85.0373 759.279 73.4023 744.926 73.4023C730.574 73.4023 718.939 85.0373 718.939 99.3898C718.939 113.742 730.574 125.377 744.926 125.377Z" fill="none" stroke="#221b38" stroke-width="1"></path>
<path d="M229.334 124.203C218.518 124.203 209.718 115.403 209.718 104.587C209.718 93.7714 218.518 84.9717 229.334 84.9717C240.149 84.9717 248.949 93.7714 248.949 104.587C248.949 115.403 240.149 124.203 229.334 124.203ZM229.334 85.7412C218.942 85.7412 210.488 94.1952 210.488 104.587C210.488 114.979 218.942 123.433 229.334 123.433C239.726 123.433 248.18 114.979 248.18 104.587C248.18 94.1952 239.726 85.7412 229.334 85.7412Z" fill="#333333"></path>
<path d="M495.446 266.749H476.735V386.291H495.446V266.749Z" fill="#f06529"></path>
<path d="M534.948 214.774H516.238V386.291H534.948V214.774Z" fill="#f06529"></path>
<path d="M540.143 383.173H520.392V210.616H540.143V383.173ZM521.432 382.133H539.103V211.656H521.432V382.133Z" fill="#333333"></path>
<path d="M574.449 275.064H555.738V386.291H574.449V275.064Z" fill="#f06529"></path>
<path d="M613.949 340.554H595.238V386.292H613.949V340.554Z" fill="#f06529"></path>
<path d="M618.625 382.653H598.874V335.876H618.625V382.653ZM599.914 381.614H617.585V336.915H599.914V381.614Z" fill="#333333"></path>
<path d="M456.561 408.121H446.04C433.373 408.121 423.104 397.852 423.104 385.184V205.486C423.104 192.819 433.373 182.55 446.04 182.55H456.561V408.121Z" fill="#ebebeb"></path>
<path d="M445.029 417.476C444.741 417.476 444.509 417.244 444.509 416.956V209.057C444.509 208.77 444.741 208.537 445.029 208.537C445.316 208.537 445.548 208.77 445.548 209.057V416.956C445.548 417.244 445.316 417.476 445.029 417.476Z" fill="#333333"></path>
<path d="M676.838 394.087H418.358C418.071 394.087 417.839 393.855 417.839 393.568C417.839 393.28 418.071 393.048 418.358 393.048H676.838C677.125 393.048 677.358 393.28 677.358 393.568C677.358 393.855 677.125 394.087 676.838 394.087Z" fill="#333333"></path>
<path d="M706.466 414.357H656.57V420.594H706.466V414.357Z" fill="#ebebeb"></path>
<path d="M764.592 242.45H735.485C729.745 242.45 725.091 237.796 725.091 232.055C725.091 226.314 729.745 221.66 735.485 221.66H764.592C770.332 221.66 774.986 226.314 774.986 232.055C774.986 237.796 770.332 242.45 764.592 242.45Z" fill="none" stroke="#221b38" stroke-width="1"></path>
<path d="M764.591 237.773H735.485C729.467 237.773 724.57 232.876 724.57 226.858C724.57 220.84 729.467 215.943 735.485 215.943H764.591C770.609 215.943 775.505 220.84 775.505 226.858C775.505 232.876 770.609 237.773 764.591 237.773ZM735.485 216.983C730.04 216.983 725.61 221.413 725.61 226.858C725.61 232.303 730.04 236.733 735.485 236.733H764.591C770.036 236.733 774.466 232.303 774.466 226.858C774.466 221.413 770.036 216.983 764.591 216.983H735.485Z" fill="#333333"></path>
<path d="M772.14 258.303H727.935C726.08 258.303 724.57 256.793 724.57 254.938V251.793C724.57 249.938 726.08 248.428 727.935 248.428H772.14C773.996 248.428 775.505 249.938 775.505 251.793V254.938C775.505 256.793 773.996 258.303 772.14 258.303ZM727.935 249.467C726.653 249.467 725.61 250.511 725.61 251.793V254.938C725.61 256.22 726.653 257.263 727.935 257.263H772.14C773.423 257.263 774.466 256.22 774.466 254.938V251.793C774.466 250.511 773.423 249.467 772.14 249.467H727.935Z" fill="#333333"></path>
<path d="M772.14 272.856H727.935C726.08 272.856 724.57 271.346 724.57 269.491V266.346C724.57 264.49 726.08 262.98 727.935 262.98H772.14C773.996 262.98 775.505 264.49 775.505 266.346V269.491C775.505 271.346 773.996 272.856 772.14 272.856ZM727.935 264.02C726.653 264.02 725.61 265.064 725.61 266.346V269.491C725.61 270.773 726.653 271.816 727.935 271.816H772.14C773.423 271.816 774.466 270.773 774.466 269.491V266.346C774.466 265.064 773.423 264.02 772.14 264.02H727.935Z" fill="#333333"></path>
<path d="M698.941 276.755H654.736C653.165 276.755 651.891 275.481 651.891 273.909V270.764C651.891 269.193 653.165 267.919 654.736 267.919H698.941C700.513 267.919 701.787 269.193 701.787 270.764V273.909C701.787 275.481 700.513 276.755 698.941 276.755Z" fill="#f06529"></path>
<path d="M417.38 446.842H373.175C371.604 446.842 370.33 445.568 370.33 443.996V440.851C370.33 439.28 371.604 438.006 373.175 438.006H417.38C418.952 438.006 420.226 439.28 420.226 440.851V443.996C420.226 445.568 418.952 446.842 417.38 446.842Z" fill="#ebebeb"></path>
<path d="M772.14 287.409H727.935C726.08 287.409 724.57 285.9 724.57 284.044V280.9C724.57 279.044 726.08 277.534 727.935 277.534H772.14C773.996 277.534 775.505 279.044 775.505 280.9V284.044C775.505 285.9 773.996 287.409 772.14 287.409ZM727.935 278.574C726.653 278.574 725.61 279.617 725.61 280.9V284.044C725.61 285.327 726.653 286.37 727.935 286.37H772.14C773.423 286.37 774.466 285.327 774.466 284.044V280.9C774.466 279.617 773.423 278.574 772.14 278.574H727.935Z" fill="#333333"></path>
<g opacity="0.59">
<path opacity="0.59" d="M249.606 134.733H212.184C211.323 134.733 210.624 134.035 210.624 133.174C210.624 132.312 211.323 131.614 212.184 131.614H249.606C250.467 131.614 251.165 132.312 251.165 133.174C251.165 134.035 250.467 134.733 249.606 134.733Z" fill="#333333"></path>
</g>
<path d="M33.6294 126.689C33.367 126.689 33.1421 126.491 33.1132 126.225C33.0822 125.94 33.2888 125.683 33.5741 125.652L229.251 104.522C229.539 104.493 229.792 104.698 229.823 104.983C229.854 105.268 229.648 105.525 229.362 105.556L33.6857 126.686C33.6669 126.688 33.6476 126.689 33.6294 126.689Z" fill="#333333"></path>
<path d="M161.777 209.994C161.637 209.994 161.497 209.938 161.395 209.826L26.2067 62.6984C26.0123 62.4868 26.0265 62.1584 26.2376 61.964C26.4493 61.7706 26.7777 61.7833 26.9721 61.995L162.16 209.122C162.354 209.334 162.34 209.662 162.129 209.857C162.029 209.949 161.903 209.994 161.777 209.994Z" fill="#333333"></path>
<path d="M162.262 225.941C171.391 225.941 178.792 218.54 178.792 209.411C178.792 200.281 171.391 192.88 162.262 192.88C153.132 192.88 145.731 200.281 145.731 209.411C145.731 218.54 153.132 225.941 162.262 225.941Z" fill="#ebebeb"></path>
<path d="M27.4911 74.2084C32.6641 74.2084 36.8575 70.0149 36.8575 64.842C36.8575 59.6691 32.6641 55.4756 27.4911 55.4756C22.3182 55.4756 18.1248 59.6691 18.1248 64.842C18.1248 70.0149 22.3182 74.2084 27.4911 74.2084Z" fill="#ebebeb"></path>
<path d="M40.8031 219.504C40.7244 219.504 40.6448 219.486 40.5696 219.448C40.3133 219.319 40.2103 219.006 40.3397 218.75L126.035 48.8862C126.164 48.6299 126.477 48.5273 126.733 48.6563C126.989 48.7857 127.092 49.0978 126.963 49.3542L41.2675 219.218C41.1762 219.399 40.9929 219.504 40.8031 219.504Z" fill="#333333"></path>
<path d="M111.996 145.049L125.697 115.679L107.112 89.1289L74.8266 91.9489L61.1261 121.319L79.7109 147.869L111.996 145.049Z" fill="none" stroke="#221b38" stroke-width="1"></path>
<path d="M45.39 233.743L54.6183 213.96L34.8354 204.732L25.6071 224.515L45.39 233.743Z" fill="#f06529"></path>
<path d="M126.497 60.0475C133.386 60.0475 138.971 54.4628 138.971 47.5736C138.971 40.6844 133.386 35.0996 126.497 35.0996C119.608 35.0996 114.023 40.6844 114.023 47.5736C114.023 54.4628 119.608 60.0475 126.497 60.0475Z" fill="#f06529"></path>
<path d="M229.305 111.277C232.75 111.277 235.542 108.484 235.542 105.04C235.542 101.595 232.75 98.8027 229.305 98.8027C225.86 98.8027 223.068 101.595 223.068 105.04C223.068 108.484 225.86 111.277 229.305 111.277Z" fill="#333333"></path>
<path d="M33.6291 132.406C37.0737 132.406 39.8661 129.613 39.8661 126.169C39.8661 122.724 37.0737 119.932 33.6291 119.932C30.1845 119.932 27.3921 122.724 27.3921 126.169C27.3921 129.613 30.1845 132.406 33.6291 132.406Z" fill="#333333"></path>
<path d="M80.716 160.47L61.7874 133.428L75.7414 103.514L108.625 100.642L127.554 127.683L113.599 157.598L80.716 160.47ZM62.9832 133.323L81.2236 159.382L112.911 156.614L126.358 127.788L108.117 101.73L76.4296 104.498L62.9832 133.323ZM113.255 157.106H113.265H113.255Z" fill="#333333"></path>
<path d="M647.214 414.357H473.618V420.594H647.214V414.357Z" fill="#ebebeb"></path>
<path d="M659.169 426.832H525.592V433.069H659.169V426.832Z" fill="#ebebeb"></path>
<path d="M656.566 439.306H573.339V445.543H656.566V439.306Z" fill="#ebebeb"></path>
<path d="M565.09 439.306H481.864V445.543H565.09V439.306Z" fill="#ebebeb"></path>
<path d="M739.66 439.306H666.896V445.543H739.66V439.306Z" fill="#ebebeb"></path>
<path d="M790.001 451.78H502.205V458.017H790.001V451.78Z" fill="#ebebeb"></path>
<path d="M759.743 426.832H668.523V433.069H759.743V426.832Z" fill="#ebebeb"></path>
<path opacity="0.28" d="M613.95 464.253H473.618V470.49H613.95V464.253Z" fill="#333333"></path>
<path opacity="0.28" d="M731.412 464.253H681.516V470.49H731.412V464.253Z" fill="#333333"></path>
<path opacity="0.28" d="M674.24 464.253H624.344V470.49H674.24V464.253Z" fill="#333333"></path>
<path d="M712.182 156.042C716.775 156.042 720.498 152.319 720.498 147.726C720.498 143.133 716.775 139.41 712.182 139.41C707.59 139.41 703.867 143.133 703.867 147.726C703.867 152.319 707.59 156.042 712.182 156.042Z" fill="#333333"></path>
<path d="M565.094 291.177C567.39 291.177 569.252 289.316 569.252 287.019C569.252 284.723 567.39 282.861 565.094 282.861C562.797 282.861 560.936 284.723 560.936 287.019C560.936 289.316 562.797 291.177 565.094 291.177Z" fill="#ebebeb"></path>
<path d="M565.092 293.093C561.742 293.093 559.017 290.368 559.017 287.019C559.017 283.669 561.742 280.944 565.092 280.944C568.441 280.944 571.166 283.669 571.166 287.019C571.166 290.368 568.441 293.093 565.092 293.093ZM565.092 281.659C562.136 281.659 559.732 284.063 559.732 287.019C559.732 289.974 562.136 292.379 565.092 292.379C568.047 292.379 570.452 289.974 570.452 287.019C570.452 284.063 568.047 281.659 565.092 281.659Z" fill="#333333"></path>
<path d="M670.553 287.539H666.915C666.627 287.539 666.395 287.306 666.395 287.019C666.395 286.731 666.627 286.499 666.915 286.499H670.553C670.84 286.499 671.073 286.731 671.073 287.019C671.073 287.306 670.84 287.539 670.553 287.539Z" fill="#333333"></path>
<path d="M659.401 287.539H651.889C651.601 287.539 651.369 287.306 651.369 287.019C651.369 286.731 651.601 286.499 651.889 286.499H659.401C659.688 286.499 659.921 286.731 659.921 287.019C659.921 287.306 659.688 287.539 659.401 287.539ZM644.376 287.539H636.864C636.576 287.539 636.344 287.306 636.344 287.019C636.344 286.731 636.576 286.499 636.864 286.499H644.376C644.663 286.499 644.896 286.731 644.896 287.019C644.896 287.306 644.663 287.539 644.376 287.539ZM629.351 287.539H621.838C621.551 287.539 621.318 287.306 621.318 287.019C621.318 286.731 621.551 286.499 621.838 286.499H629.351C629.638 286.499 629.871 286.731 629.871 287.019C629.871 287.306 629.638 287.539 629.351 287.539ZM614.326 287.539H606.813C606.526 287.539 606.293 287.306 606.293 287.019C606.293 286.731 606.526 286.499 606.813 286.499H614.326C614.613 286.499 614.845 286.731 614.845 287.019C614.845 287.306 614.613 287.539 614.326 287.539ZM599.301 287.539H591.788C591.501 287.539 591.268 287.306 591.268 287.019C591.268 286.731 591.501 286.499 591.788 286.499H599.301C599.588 286.499 599.82 286.731 599.82 287.019C599.82 287.306 599.588 287.539 599.301 287.539ZM584.276 287.539H576.763C576.476 287.539 576.243 287.306 576.243 287.019C576.243 286.731 576.476 286.499 576.763 286.499H584.276C584.563 286.499 584.795 286.731 584.795 287.019C584.795 287.306 584.563 287.539 584.276 287.539Z" fill="#333333"></path>
<path d="M569.25 287.539H565.612C565.325 287.539 565.092 287.306 565.092 287.019C565.092 286.731 565.325 286.499 565.612 286.499H569.25C569.537 286.499 569.77 286.731 569.77 287.019C569.77 287.306 569.537 287.539 569.25 287.539Z" fill="#333333"></path>
<path d="M710.102 287.539H670.552C670.265 287.539 670.032 287.306 670.032 287.019C670.032 286.732 670.265 286.499 670.552 286.499H710.102C710.962 286.499 711.661 285.8 711.661 284.94V220.545C711.661 220.258 711.894 220.025 712.181 220.025C712.468 220.025 712.701 220.258 712.701 220.545V284.94C712.701 286.373 711.535 287.539 710.102 287.539Z" fill="#333333"></path>
<path d="M712.178 153.964C711.891 153.964 711.658 153.731 711.658 153.444V149.806C711.658 149.519 711.891 149.286 712.178 149.286C712.465 149.286 712.698 149.519 712.698 149.806V153.444C712.698 153.731 712.465 153.964 712.178 153.964Z" fill="#333333"></path>
<path d="M712.178 210.376C711.891 210.376 711.658 210.144 711.658 209.857V202.805C711.658 202.518 711.891 202.285 712.178 202.285C712.465 202.285 712.698 202.518 712.698 202.805V209.857C712.698 210.144 712.465 210.376 712.178 210.376ZM712.178 196.273C711.891 196.273 711.658 196.041 711.658 195.753V188.702C711.658 188.415 711.891 188.183 712.178 188.183C712.465 188.183 712.698 188.415 712.698 188.702V195.753C712.698 196.041 712.465 196.273 712.178 196.273ZM712.178 182.17C711.891 182.17 711.658 181.938 711.658 181.651V174.599C711.658 174.312 711.891 174.079 712.178 174.079C712.465 174.079 712.698 174.312 712.698 174.599V181.651C712.698 181.938 712.465 182.17 712.178 182.17ZM712.178 168.068C711.891 168.068 711.658 167.835 711.658 167.548V160.496C711.658 160.209 711.891 159.977 712.178 159.977C712.465 159.977 712.698 160.209 712.698 160.496V167.548C712.698 167.835 712.465 168.068 712.178 168.068Z" fill="#333333"></path>
<path d="M712.178 221.065C711.891 221.065 711.658 220.833 711.658 220.546V216.907C711.658 216.62 711.891 216.388 712.178 216.388C712.465 216.388 712.698 216.62 712.698 216.907V220.546C712.698 220.833 712.465 221.065 712.178 221.065Z" fill="#333333"></path>
<path d="M215.686 206.158H186.328C185.754 206.158 185.288 205.693 185.288 205.119C185.288 204.545 185.754 204.079 186.328 204.079H215.686C216.26 204.079 216.726 204.545 216.726 205.119C216.726 205.693 216.26 206.158 215.686 206.158Z" fill="#333333"></path>
<path d="M215.686 212.177H186.327C185.753 212.177 185.288 211.711 185.288 211.137C185.288 210.563 185.753 210.098 186.327 210.098H215.686C216.26 210.098 216.725 210.563 216.725 211.137C216.725 211.711 216.26 212.177 215.686 212.177Z" fill="#333333"></path>
<path d="M215.686 218.194H186.327C185.753 218.194 185.288 217.729 185.288 217.155C185.288 216.581 185.753 216.115 186.327 216.115H215.686C216.26 216.115 216.725 216.581 216.725 217.155C216.725 217.729 216.26 218.194 215.686 218.194Z" fill="#333333"></path>
<path d="M525.592 174.502C528.176 174.502 530.27 172.408 530.27 169.824C530.27 167.241 528.176 165.146 525.592 165.146C523.009 165.146 520.915 167.241 520.915 169.824C520.915 172.408 523.009 174.502 525.592 174.502Z" fill="none" stroke="#221b38" stroke-width="1"></path>
<path d="M525.591 193.316C529.13 193.316 532 190.447 532 186.907C532 183.368 529.13 180.498 525.591 180.498C522.051 180.498 519.181 183.368 519.181 186.907C519.181 190.447 522.051 193.316 525.591 193.316Z" fill="#ebebeb"></path>
<path d="M525.59 159.669C521.769 159.669 518.661 156.56 518.661 152.739C518.661 148.919 521.769 145.811 525.59 145.811C529.411 145.811 532.519 148.919 532.519 152.739C532.519 156.56 529.411 159.669 525.59 159.669ZM525.59 146.85C522.342 146.85 519.7 149.492 519.7 152.739C519.7 155.987 522.342 158.629 525.59 158.629C528.837 158.629 531.479 155.987 531.479 152.739C531.479 149.492 528.837 146.85 525.59 146.85Z" fill="#333333"></path>
<path d="M486.089 260.066C485.802 260.066 485.57 259.834 485.57 259.547V255.908C485.57 255.621 485.802 255.389 486.089 255.389C486.377 255.389 486.609 255.621 486.609 255.908V259.547C486.609 259.834 486.377 260.066 486.089 260.066Z" fill="#333333"></path>
<path d="M486.089 248.941C485.801 248.941 485.569 248.709 485.569 248.421V240.935C485.569 240.648 485.801 240.415 486.089 240.415C486.376 240.415 486.608 240.648 486.608 240.935V248.421C486.608 248.709 486.376 248.941 486.089 248.941ZM486.089 233.968C485.801 233.968 485.569 233.735 485.569 233.448V225.961C485.569 225.674 485.801 225.441 486.089 225.441C486.376 225.441 486.608 225.674 486.608 225.961V233.448C486.608 233.735 486.376 233.968 486.089 233.968ZM486.089 218.994C485.801 218.994 485.569 218.761 485.569 218.474V210.987C485.569 210.7 485.801 210.468 486.089 210.468C486.376 210.468 486.608 210.7 486.608 210.987V218.474C486.608 218.761 486.376 218.994 486.089 218.994ZM486.089 204.02C485.801 204.02 485.569 203.788 485.569 203.5V196.014C485.569 195.726 485.801 195.494 486.089 195.494C486.376 195.494 486.608 195.726 486.608 196.014V203.5C486.608 203.788 486.376 204.02 486.089 204.02ZM486.089 189.046C485.801 189.046 485.569 188.814 485.569 188.527V181.04C485.569 180.753 485.801 180.52 486.089 180.52C486.376 180.52 486.608 180.753 486.608 181.04V188.527C486.608 188.814 486.376 189.046 486.089 189.046ZM486.089 174.073C485.801 174.073 485.569 173.84 485.569 173.553V166.066C485.569 165.779 485.801 165.546 486.089 165.546C486.376 165.546 486.608 165.779 486.608 166.066V173.553C486.608 173.84 486.376 174.073 486.089 174.073ZM486.089 159.099C485.801 159.099 485.569 158.866 485.569 158.579V151.092C485.569 150.805 485.801 150.573 486.089 150.573C486.376 150.573 486.608 150.805 486.608 151.092V158.579C486.608 158.866 486.376 159.099 486.089 159.099ZM486.089 144.126C485.801 144.126 485.569 143.893 485.569 143.606V136.132C485.569 135.845 485.801 135.606 486.089 135.606C486.376 135.606 486.608 135.831 486.608 136.119V143.606C486.608 143.893 486.376 144.126 486.089 144.126ZM525.589 139.709C525.302 139.709 525.07 139.476 525.07 139.189V136.132C525.07 135.272 524.37 134.573 523.51 134.573H522.348C522.061 134.573 521.828 134.34 521.828 134.053C521.828 133.766 522.061 133.533 522.348 133.533H523.51C524.943 133.533 526.109 134.699 526.109 136.132V139.189C526.109 139.476 525.877 139.709 525.589 139.709ZM514.861 134.573H507.374C507.087 134.573 506.855 134.34 506.855 134.053C506.855 133.766 507.087 133.533 507.374 133.533H514.861C515.148 133.533 515.381 133.766 515.381 134.053C515.381 134.34 515.148 134.573 514.861 134.573ZM499.887 134.573H492.401C492.113 134.573 491.881 134.34 491.881 134.053C491.881 133.766 492.113 133.533 492.401 133.533H499.887C500.175 133.533 500.407 133.766 500.407 134.053C500.407 134.34 500.175 134.573 499.887 134.573Z" fill="#333333"></path>
<path d="M525.592 150.847C525.304 150.847 525.072 150.614 525.072 150.327V146.689C525.072 146.401 525.304 146.169 525.592 146.169C525.879 146.169 526.112 146.401 526.112 146.689V150.327C526.112 150.614 525.879 150.847 525.592 150.847Z" fill="#333333"></path>
<path d="M777.413 564.9H23.0572C20.3325 564.9 18.1237 562.691 18.1237 559.967V533.121C18.1237 530.396 20.3325 528.188 23.0572 528.188H777.413C780.138 528.188 782.347 530.396 782.347 533.121V559.967C782.347 562.691 780.138 564.9 777.413 564.9Z" fill="#f06529"></path>
<path d="M319.538 334.568C319.371 334.568 319.203 334.514 319.061 334.404L292.587 313.86C292.247 313.596 292.185 313.107 292.45 312.767C292.713 312.426 293.203 312.365 293.543 312.628L320.017 333.172C320.357 333.436 320.419 333.926 320.155 334.266C320.001 334.464 319.771 334.568 319.538 334.568Z" fill="#333333"></path>
<path d="M298.996 334.568C298.839 334.568 298.681 334.521 298.544 334.423C298.193 334.174 298.111 333.687 298.361 333.336L312.974 312.793C313.224 312.442 313.71 312.359 314.061 312.609C314.412 312.859 314.494 313.346 314.244 313.696L299.632 334.24C299.479 334.453 299.239 334.568 298.996 334.568Z" fill="#333333"></path>
<path d="M788.223 347.447C788.056 347.447 787.888 347.394 787.746 347.284L761.272 326.74C760.932 326.476 760.87 325.987 761.134 325.646C761.398 325.306 761.888 325.244 762.228 325.508L788.702 346.052C789.042 346.316 789.104 346.805 788.839 347.146C788.686 347.344 788.456 347.447 788.223 347.447Z" fill="#333333"></path>
<path d="M767.68 347.447C767.523 347.447 767.365 347.401 767.228 347.303C766.877 347.054 766.795 346.567 767.045 346.216L781.657 325.673C781.908 325.322 782.394 325.239 782.745 325.489C783.096 325.739 783.178 326.226 782.928 326.576L768.316 347.12C768.163 347.333 767.923 347.447 767.68 347.447Z" fill="#333333"></path>
<path d="M350.066 176.197C349.899 176.197 349.731 176.144 349.589 176.034L323.115 155.49C322.775 155.226 322.713 154.737 322.978 154.396C323.241 154.056 323.731 153.994 324.071 154.258L350.545 174.802C350.885 175.066 350.947 175.555 350.683 175.896C350.529 176.094 350.299 176.197 350.066 176.197Z" fill="#333333"></path>
<path d="M329.522 176.197C329.366 176.197 329.208 176.151 329.071 176.053C328.72 175.803 328.638 175.317 328.887 174.966L343.5 154.423C343.75 154.072 344.237 153.989 344.587 154.239C344.939 154.489 345.02 154.976 344.771 155.326L330.158 175.869C330.006 176.083 329.766 176.197 329.522 176.197Z" fill="#333333"></path>
<path d="M566.234 58.5256C566.067 58.5256 565.898 58.4723 565.756 58.3621L539.282 37.8184C538.942 37.5544 538.88 37.0651 539.145 36.7246C539.408 36.3845 539.899 36.3226 540.239 36.5865L566.712 57.1303C567.052 57.3942 567.114 57.8835 566.85 58.2241C566.697 58.422 566.466 58.5256 566.234 58.5256Z" fill="#333333"></path>
<path d="M545.691 58.5255C545.534 58.5255 545.377 58.4788 545.239 58.3814C544.888 58.1316 544.807 57.6449 545.056 57.2942L559.669 36.7509C559.919 36.4002 560.405 36.3174 560.756 36.5672C561.107 36.8169 561.189 37.3036 560.94 37.6544L546.327 58.1976C546.174 58.4113 545.934 58.5255 545.691 58.5255Z" fill="#333333"></path>
<g opacity="0.7">
<path opacity="0.1" d="M127.369 197.02L140.893 168.028L136.413 161.635L138.139 157.935C137.099 158.267 136.06 158.621 135.01 158.974C134.126 159.275 133.243 159.577 132.349 159.899C130.706 160.481 129.054 161.084 127.401 161.708C126.777 161.947 126.153 162.186 125.529 162.436C124.116 162.987 122.702 163.548 121.278 164.13C120.571 164.421 119.864 164.722 119.157 165.024C118.44 165.325 117.733 165.627 117.026 165.939C114.906 166.864 112.775 167.831 110.654 168.828C108.534 169.837 106.424 170.866 104.324 171.947L104.313 171.937C103.991 172.093 103.669 172.259 103.357 172.425C99.3654 174.494 95.4257 176.687 91.5588 179.026C90.4672 179.681 89.3135 180.388 88.0972 181.136L93.0452 188.215L116.018 186.209L125.925 196.988L94.5631 199.733L83.5443 183.995C83.2532 184.171 82.9621 184.359 82.671 184.556L94.0535 200.814L126.818 197.955L147.858 220.855C148.056 220.564 148.253 220.263 148.45 219.972L127.369 197.02ZM126.6 196.188L117.328 186.094L125.332 185.398L135.904 162.727L139.698 168.132L126.6 196.188Z" fill="#333333"></path>
</g>
<path d="M98.8252 319.779C96.6442 319.779 94.6134 318.395 93.8916 316.211L90.7549 306.724C89.8839 304.089 90.3346 301.174 91.9593 298.925C93.5846 296.677 96.2107 295.335 98.9846 295.335H109.503C112.374 295.335 114.701 297.662 114.701 300.532C114.701 303.403 112.374 305.73 109.503 305.73H101.374L103.761 312.949C104.662 315.674 103.183 318.614 100.458 319.514C99.9165 319.694 99.3663 319.779 98.8252 319.779Z" fill="white"></path>
<path d="M248.999 464.859C250.832 462.774 250.047 459.087 247.246 456.625C244.444 454.163 240.688 453.857 238.855 455.943C237.022 458.028 237.807 461.715 240.608 464.177C243.409 466.639 247.166 466.944 248.999 464.859Z" fill="#ebebeb"></path>
<g opacity="0.25">
<path opacity="0.25" d="M267.084 464.739C268.917 462.653 268.132 458.967 265.331 456.505C262.529 454.043 258.773 453.737 256.94 455.823C255.107 457.908 255.892 461.595 258.693 464.057C261.494 466.519 265.251 466.824 267.084 464.739Z" fill="#ebebeb"></path>
</g>
<g opacity="0.68">
<path opacity="0.68" d="M285.171 464.62C287.004 462.534 286.219 458.848 283.418 456.386C280.616 453.923 276.86 453.618 275.027 455.704C273.194 457.789 273.979 461.475 276.78 463.938C279.581 466.4 283.338 466.705 285.171 464.62Z" fill="#ebebeb"></path>
</g>
</svg>
