<svg width="512" height="512" viewBox="0 0 512 512" fill="currentColor" xmlns="http://www.w3.org/2000/svg">
<path fill-rule="evenodd" clip-rule="evenodd" d="M406.678 414.927C406.678 421.578 415.346 426.923 420.036 422.208C452.868 389.203 472.725 346.193 472.725 299.156C472.725 195.145 375.632 110.828 255.863 110.828C136.093 110.828 39 195.145 39 299.156C39 346.19 58.8546 389.197 91.6825 422.202C96.3707 426.915 105.033 421.574 105.033 414.927V390.192C105.033 368.571 96.3063 348.32 87.6506 328.234C85.3737 322.95 83.1016 317.678 80.9947 312.395C67.0132 277.338 75.2058 236.399 105.573 208.236C147.056 169.764 214.251 169.669 255.861 207.951C255.862 207.952 255.862 207.952 255.863 207.951C297.473 169.669 364.669 169.764 406.153 208.236C436.522 236.401 444.713 277.344 430.727 312.403C428.619 317.687 426.346 322.96 424.068 328.245C415.409 348.335 406.678 368.59 406.678 390.216V414.927Z" />
<path d="M282.689 91.6286L213.083 125.348C210.138 126.774 210.058 130.94 212.946 132.478L227.885 140.434C228.183 140.592 228.499 140.713 228.827 140.792L273.635 151.601C274.693 151.856 275.809 151.669 276.726 151.083L328.464 118.026C331.833 115.873 330.308 110.655 326.31 110.655H290.038C287.471 110.655 285.568 108.271 286.137 105.768L288.333 96.1158C289.077 92.8452 285.708 90.1663 282.689 91.6286Z" />
<path d="M269.244 316.993L242.842 316.169C239.378 316.061 236.025 317.402 233.59 319.869C231.29 322.2 230 325.343 230 328.618V330.588C230 334.945 231.648 339.14 234.613 342.332L242.124 350.42C246.022 354.616 251.491 357 257.218 357C263.105 357 268.71 354.481 272.619 350.08L277.895 344.141C280.468 341.244 282.025 337.586 282.33 333.723L282.484 331.775C282.81 327.642 281.249 323.583 278.237 320.735C275.798 318.429 272.599 317.097 269.244 316.993Z" />
<path d="M288.294 382H226.278C225.173 382 224.884 383.527 225.912 383.931L235.08 387.534C240.907 389.824 247.111 391 253.371 391H263.046C271.883 391 280.562 388.658 288.199 384.212L288.797 383.864C289.68 383.35 289.315 382 288.294 382Z" />
<path fill-rule="evenodd" clip-rule="evenodd" d="M75.5951 303.323L123.172 264.013C131.228 257.357 140.749 252.708 150.952 250.448L164.826 247.374C177.199 244.633 190.131 248.11 199.461 256.686L199.889 257.079C207.607 264.173 212 274.177 212 284.661V285.908C212 298.065 205.73 309.362 195.413 315.793C192.393 317.675 189.106 319.089 185.663 319.986L96.0526 343.33C83.9518 346.482 71.5484 339.394 68.1217 327.368C65.6177 318.58 68.5507 309.143 75.5951 303.323ZM171 301C180.389 301 188 293.389 188 284C188 274.611 180.389 267 171 267C161.611 267 154 274.611 154 284C154 293.389 161.611 301 171 301Z" />
<path fill-rule="evenodd" clip-rule="evenodd" d="M441.604 303.738L397.505 266.781C389.081 259.721 379.09 254.781 368.366 252.373L349.191 248.068C335.368 244.965 320.932 250.038 312.03 261.058C307.808 266.285 305.075 272.594 304.169 279.251C302.236 293.442 308.71 307.466 320.763 315.2L321.48 315.66C324.884 317.844 328.613 319.473 332.528 320.486L421.18 343.419C433.185 346.525 445.479 339.501 448.899 327.581C451.393 318.89 448.534 309.546 441.604 303.738ZM344 301C353.389 301 361 293.389 361 284C361 274.611 353.389 267 344 267C334.611 267 327 274.611 327 284C327 293.389 334.611 301 344 301Z" />
</svg>
